<?xml version="1.0" standalone="no"?>
<!DOCTYPE svg PUBLIC "-//W3C//DTD SVG 1.1//EN" "http://www.w3.org/Graphics/SVG/1.1/DTD/svg11.dtd" >
<svg xmlns="http://www.w3.org/2000/svg">
<metadata>Generated by IcoMoon</metadata>
<defs>
<font id="icomoon" horiz-adv-x="512">
<font-face units-per-em="512" ascent="480" descent="-32" />
<missing-glyph horiz-adv-x="512" />
<glyph unicode="&#x20;" horiz-adv-x="256" d="" />
<glyph unicode="&#xe600;" glyph-name="css3" d="M76.194 455.739l-17.18-85.963h349.874l-10.942-55.527h-350.094l-16.946-85.949h349.842l-19.509-98.032-141.006-46.711-122.2 46.711 8.364 42.521h-85.949l-20.448-103.176 202.113-77.352 233.003 77.352 76.884 386.126z" />
<glyph unicode="&#xe602;" glyph-name="github" d="M256 480c-141.385 0-256-114.615-256-256s114.615-256 256-256 256 114.615 256 256-114.615 256-256 256zM408.028 71.972c-19.759-19.758-42.756-35.266-68.354-46.093-6.503-2.75-13.107-5.164-19.8-7.246v38.367c0 20.167-6.917 35-20.75 44.5 8.667 0.833 16.625 2 23.875 3.5s14.917 3.667 23 6.5 15.333 6.208 21.75 10.125 12.583 9 18.5 15.25 10.875 13.333 14.875 21.25 7.167 17.417 9.5 28.5 3.5 23.292 3.5 36.625c0 25.833-8.417 47.833-25.25 66 7.667 20 6.833 41.75-2.5 65.25l-6.25 0.75c-4.333 0.5-12.125-1.333-23.375-5.5s-23.875-11-37.875-20.5c-19.833 5.5-40.417 8.25-61.75 8.25-21.5 0-42-2.75-61.5-8.25-8.833 6-17.208 10.958-25.125 14.875s-14.25 6.583-19 8-9.167 2.292-13.25 2.625-6.708 0.417-7.875 0.25-2-0.333-2.5-0.5c-9.333-23.667-10.167-45.417-2.5-65.25-16.833-18.167-25.25-40.167-25.25-66 0-13.333 1.167-25.542 3.5-36.625s5.5-20.583 9.5-28.5 8.958-15 14.875-21.25 12.083-11.333 18.5-15.25 13.667-7.292 21.75-10.125 15.75-5 23-6.5 15.208-2.667 23.875-3.5c-13.667-9.333-20.5-24.167-20.5-44.5v-39.115c-7.549 2.247-14.99 4.902-22.3 7.994-25.597 10.827-48.594 26.335-68.353 46.093-19.758 19.759-35.267 42.756-46.093 68.354-11.199 26.479-16.878 54.631-16.878 83.674s5.679 57.195 16.879 83.675c10.827 25.597 26.335 48.594 46.093 68.353s42.756 35.267 68.353 46.093c26.48 11.2 54.632 16.879 83.675 16.879s57.195-5.679 83.675-16.879c25.598-10.827 48.595-26.335 68.354-46.093 19.758-19.758 35.266-42.756 46.093-68.353 11.199-26.48 16.878-54.632 16.878-83.675s-5.679-57.195-16.879-83.675c-10.827-25.597-26.335-48.595-46.093-68.353z" />
<glyph unicode="&#xe603;" glyph-name="gears" horiz-adv-x="549" d="M0 193.429v52.857q0 2.857 2 5.572t4.572 3l44.285 6.857q3.143 10 9.143 21.715-9.715 13.714-25.715 32.857-2 3.143-2 5.714 0 3.429 2 5.714 6.285 8.572 23.428 25.428t22.572 16.857q3.143 0 6-2l32.857-25.714q9.715 5.143 22 9.143 3.143 30.857 6.572 44 2 6.857 8.572 6.857h53.143q3.143 0 5.714-2.143t2.857-5l6.572-43.714q9.714-2.857 21.428-8.857l33.714 25.428q2.286 2 5.714 2 3.143 0 6-2.286 41.143-38 41.143-45.714 0-2.572-2-5.428-3.428-4.572-12-15.428t-12.857-17.143q6.572-13.714 9.714-23.428l43.428-6.572q2.857-0.572 4.857-3t2-5.572v-52.857q0-2.857-2-5.572t-4.572-3l-44.286-6.857q-3.143-10-9.143-21.714 9.714-13.714 25.714-32.857 2-2.857 2-5.714 0-3.428-2-5.428-6.572-8.572-23.572-25.572t-22.428-17q-3.143 0-6 2l-32.857 25.714q-10.571-5.428-22-8.857-3.143-30.857-6.571-44.286-2-6.857-8.572-6.857h-53.143q-3.143 0-5.714 2.143t-2.857 5l-6.572 43.714q-9.714 2.857-21.428 8.857l-33.715-25.428q-2-2-5.715-2-3.143 0-6 2.286-41.143 38-41.143 45.714 0 2.572 2 5.428 2.857 4 11.715 15.143t13.428 17.428q-6.572 12.572-10 23.428l-43.428 6.857q-2.857 0.286-4.857 2.714t-2 5.572zM109.715 219.429q0-30.286 21.428-51.714t51.715-21.428 51.714 21.428 21.428 51.714-21.428 51.714-51.714 21.428-51.714-21.428-21.428-51.714zM329.143 53.143v40q0 4.572 42.572 8.857 3.714 8.286 8.572 14.857-14.572 32.286-14.572 39.428 0 1.143 1.143 2 1.143 0.572 10 5.714t16.857 9.714 8.572 4.572q2.286 0 13.143-13.286t14.857-19.286q5.714 0.572 8.572 0.572t8.572-0.572q14.572 20.286 26.286 32l1.714 0.572q1.143 0 35.428-20 1.143-0.857 1.143-2 0-7.143-14.572-39.428 4.857-6.572 8.572-14.857 42.572-4.286 42.572-8.857v-40q0-4.572-42.572-8.857-3.428-7.714-8.572-14.857 14.572-32.286 14.572-39.428 0-1.143-1.143-2-34.857-20.286-35.428-20.286-2.286 0-13.143 13.429t-14.857 19.428q-5.714-0.572-8.572-0.572t-8.572 0.572q-4-6-14.857-19.428t-13.143-13.429q-0.572 0-35.428 20.286-1.143 0.857-1.143 2 0 7.143 14.572 39.428-5.143 7.143-8.572 14.857-42.572 4.286-42.572 8.857zM329.143 345.714v40q0 4.571 42.572 8.857 3.714 8.286 8.572 14.857-14.572 32.285-14.572 39.428 0 1.143 1.143 2 1.143 0.572 10 5.714t16.857 9.714 8.572 4.572q2.286 0 13.143-13.286t14.857-19.285q5.714 0.571 8.572 0.571t8.572-0.571q14.572 20.286 26.286 32l1.714 0.571q1.143 0 35.428-20 1.143-0.857 1.143-2 0-7.143-14.572-39.428 4.857-6.572 8.572-14.857 42.572-4.286 42.572-8.857v-40q0-4.571-42.572-8.857-3.428-7.714-8.572-14.857 14.572-32.285 14.572-39.428 0-1.143-1.143-2-34.857-20.286-35.428-20.286-2.286 0-13.143 13.428t-14.857 19.428q-5.714-0.572-8.572-0.572t-8.572 0.572q-4-6-14.857-19.428t-13.143-13.428q-0.572 0-35.428 20.286-1.143 0.857-1.143 2 0 7.143 14.572 39.428-5.143 7.143-8.572 14.857-42.572 4.286-42.572 8.857zM402.286 73.143q0-15.143 10.714-25.857t25.857-10.714 25.857 10.714 10.714 25.857q0 14.857-10.857 25.714t-25.714 10.857-25.714-10.857-10.857-25.714zM402.286 365.714q0-15.143 10.714-25.857t25.857-10.714 25.857 10.714 10.714 25.857q0 14.857-10.857 25.715t-25.714 10.857-25.714-10.857-10.857-25.715z" />
<glyph unicode="&#xe604;" glyph-name="envelope" d="M0 45.714v226.857q12.572-14 28.857-24.857 103.429-70.286 142-98.572 16.285-12 26.429-18.714t27-13.714 31.428-7h0.572q14.572 0 31.428 7t27 13.714 26.428 18.714q48.572 35.143 142.286 98.572 16.286 11.143 28.572 24.857v-226.857q0-18.857-13.428-32.286t-32.286-13.428h-420.572q-18.857 0-32.285 13.428t-13.428 32.286zM0 350.286q0 22.286 11.857 37.143t33.857 14.857h420.572q18.572 0 32.143-13.428t13.572-32.286q0-22.571-14-43.143t-34.857-35.143q-107.428-74.571-133.714-92.857-2.857-2-12.143-8.714t-15.428-10.857-14.857-9.286-16.428-7.714-14.286-2.572h-0.571q-6.571 0-14.286 2.572t-16.429 7.714-14.857 9.286-15.429 10.857-12.143 8.714q-26 18.286-74.857 52.143t-58.572 40.715q-17.715 12-33.428 33t-15.714 39z" />
<glyph unicode="&#xe605;" glyph-name="tree" d="M488 96h-8v104c0 30.878-25.121 56-56 56h-136v64h8c13.2 0 24 10.8 24 24v80c0 13.2-10.8 24-24 24h-80c-13.2 0-24-10.8-24-24v-80c0-13.2 10.8-24 24-24h8v-64h-136c-30.878 0-56-25.122-56-56v-104h-8c-13.2 0-24-10.8-24-24v-80c0-13.2 10.8-24 24-24h80c13.2 0 24 10.8 24 24v80c0 13.2-10.8 24-24 24h-8v96h128v-96h-8c-13.2 0-24-10.8-24-24v-80c0-13.2 10.8-24 24-24h80c13.2 0 24 10.8 24 24v80c0 13.2-10.8 24-24 24h-8v96h128v-96h-8c-13.2 0-24-10.8-24-24v-80c0-13.2 10.8-24 24-24h80c13.2 0 24 10.8 24 24v80c0 13.2-10.8 24-24 24zM96 0h-64v64h64v-64zM288 0h-64v64h64v-64zM224 352v64h64v-64h-64zM480 0h-64v64h64v-64z" />
<glyph unicode="&#xe606;" glyph-name="code" d="M64 224l128 128h-64l-128-128 128-128h64zM384 352h-64l128-128-128-128h64l128 128zM272 416l-80-384h48l80 384z" />
<glyph unicode="&#xe607;" glyph-name="uniE603" horiz-adv-x="384" d="M192 0c-106.016 0-192 28.688-192 64 0 19.313 0 40.438 0 64 0 5.563 2.781 10.844 6.781 16 21.407-27.563 95.844-48 185.219-48s163.813 20.438 185.219 48c4-5.156 6.781-10.438 6.781-16 0-18.531 0-38.188 0-64 0-35.313-86-64-192-64zM192 128c-106.016 0-192 28.688-192 64 0 19.328 0 40.422 0 64 0 3.39 1.281 6.688 3 9.953v0c0.969 2.047 2.25 4.063 3.781 6.047 21.407-27.547 95.844-48 185.219-48s163.813 20.453 185.219 48c1.531-1.985 2.813-4 3.781-6.047v0c1.719-3.265 3-6.563 3-9.953 0-18.531 0-38.172 0-64 0-35.313-86-64-192-64zM192 256c-106.016 0-192 28.672-192 64 0 10.11 0 20.797 0 32 0 10.172 0 20.735 0 32 0 35.328 85.984 64 192 64 106 0 192-28.672 192-64 0-9.985 0-20.578 0-32 0-9.797 0-20.125 0-32 0-35.328-86-64-192-64zM192 416c-70.688 0-128-14.297-128-32s57.313-32 128-32 128 14.297 128 32-57.313 32-128 32z" />
<glyph unicode="&#xe608;" glyph-name="console" d="M0 448v-448h512v448h-512zM480 32h-448v384h448v-384zM448 384h-384v-320h384v320zM224 224h-32v-32h-32v-32h-32v32h32v32h32v32h-32v32h-32v32h32v-32h32v-32h32v-32zM352 160h-96v32h96v-32z" />
<glyph unicode="&#xe609;" glyph-name="html5" d="M30.269 480l41.072-460.815 184.378-51.185 184.862 51.262 41.15 460.738h-451.462zM392.315 329.286h-216.27l5.151-57.875h205.984l-15.521-173.505-115.922-32.127-115.786 32.127-7.915 88.756h56.747l4.024-45.116 62.931-16.958 0.139 0.039 62.967 16.996 6.535 73.275h-195.87l-15.247 170.9h283.107l-5.054-56.512z" />
<glyph unicode="&#xe60a;" glyph-name="quote-left" d="M512 32v192h-128c0 70.56 57.376 128 128 128v64c-105.872 0-192-86.128-192-192v-192h192zM192 32v192h-128c0 70.56 57.376 128 128 128v64c-105.872 0-192-86.128-192-192v-192h192z" />
<glyph unicode="&#xe60b;" glyph-name="quote-right" d="M0 416v-192h128c0-70.56-57.376-128-128-128v-64c105.872 0 192 86.128 192 192v192h-192zM320 416v-192h128c0-70.56-57.376-128-128-128v-64c105.872 0 192 86.128 192 192v192h-192z" />
<glyph unicode="&#xe60e;" glyph-name="users" d="M367.497 77.313c-9.476 1.494-9.692 27.327-9.692 27.327s27.844 27.328 33.912 64.076c16.326 0 26.407 39.069 10.082 52.814 0.681 14.47 20.984 113.588-81.799 113.588s-82.479-99.118-81.799-113.588c-16.327-13.745-6.244-52.814 10.081-52.814 6.067-36.748 33.913-64.076 33.913-64.076s-0.216-25.833-9.692-27.327c-30.524-4.816-144.503-54.658-144.503-109.313h384c0 54.655-113.979 104.497-144.503 109.313zM172.027 68.595c22.047 13.575 48.813 26.154 70.769 33.712-7.876 11.216-16.647 26.468-22.165 44.531-7.703 6.283-13.972 15.266-17.999 26.301-4.033 11.052-5.561 23.426-4.304 34.842 0.902 8.196 3.239 15.833 6.825 22.544-2.175 23.293-3.707 69.017 26.224 102.366 11.607 12.933 26.278 22.23 43.85 27.843-3.137 32.38-19.58 70.385-83.227 70.385-102.782 0-82.479-99.118-81.799-113.588-16.327-13.745-6.244-52.814 10.081-52.814 6.067-36.748 33.913-64.076 33.913-64.076s-0.216-25.833-9.692-27.327c-30.524-4.817-144.503-54.659-144.503-109.314h164.798c2.355 1.537 4.753 3.070 7.229 4.595z" />
<glyph unicode="&#xe900;" glyph-name="github2" d="M117.639 355.64c-25.396 0-47.242-8.403-65.542-25.208-19.043-17.926-28.57-40.33-28.57-67.218 0-17.926 5.188-34.731 15.647-50.416 9.337-14.563 19.090-23.903 31.889-28.012v-1.121c-12.799-5.224-18.483-18.295-18.483-39.209 0-16.062 5.686-28.011 18.483-35.854v-1.121c-35.327-11.573-51.496-33.047-51.496-64.415 0-27.267 11.874-47.244 35.033-59.939 18.295-10.086 41.789-15.127 70.173-15.127 69.085 0 103.703 28.941 103.703 86.832 0 36.223-26.661 58.441-80.064 66.658-12.323 1.863-21.643 6.348-27.991 13.445-4.854 4.854-7.271 9.709-7.271 14.563 0 13.816 7.479 21.848 22.41 24.088 22.779 3.357 41.364 13.912 55.743 31.648 14.375 17.74 21.565 38.559 21.565 62.458 0 7.469-2.259 15.498-5.244 24.086 9.709 2.244 16.525 4.297 21.646 6.166v57.696c-22.527-8.964-43.495-13.442-61.421-13.442-15.687 8.961-31.912 13.442-50.21 13.442zM123.801 76.115c31.372 0 47.052-9.521 47.052-28.57 0-20.168-14.377-30.246-43.132-30.246-32.862 0-49.293 9.711-49.293 29.127-0.001 19.795 15.122 29.689 45.373 29.689zM119.88 224c-23.527 0-35.293 12.882-35.293 38.654 0 27.631 11.766 41.453 35.293 41.453 11.201 0 19.979-4.298 26.326-12.884 5.229-7.845 7.845-17.18 7.845-28.011 0-26.139-11.393-39.212-34.171-39.212zM290.192 480c-10.828 0-20.070-4.107-27.727-12.324-7.657-8.218-11.485-18.108-11.485-29.688 0-11.205 3.829-20.91 11.485-29.129 7.654-8.217 16.896-12.32 27.727-12.32 10.455 0 19.514 4.104 27.17 12.32 7.656 8.219 11.48 17.924 11.48 29.129 0 11.58-3.824 21.472-11.48 29.688-7.659 8.217-16.715 12.324-27.17 12.324zM321.565 352.001h-63.303c0.748-7.168-0.32-18.021-0.32-35.57v-174.216c0-17.928 1.068-32.387 0.32-38.018h63.303c-0.75 8.188-2.697 22.334-2.697 41.379v171.973c-0.003 16.432 1.947 27.284 2.697 34.452zM461.168 157.9c-16.436 0-24.541 12.514-24.541 37.533v103.32h24.932c4.48 0 8.516 0.246 13.559-0.123 5.043-0.374 7.076-0.125 9.639-0.125v53.495h-48.129v23.808c0 8.961 1.408 17.151 2.527 22.271h-64.979c1.121-5.12 1.014-12.938 1.014-23.395v-22.684h-28.16v-53.494c7.682 1.12 14.545 1.678 19.398 1.678l8.762-0.559v-101.393c0-31.371 3.979-54.336 11.818-68.9 10.461-19.42 28.811-29.129 56.068-29.129 19.424 0 36.559 3.732 49.357 11.205v56.016c-10.237-6.35-19.691-9.524-31.265-9.524z" />
<glyph unicode="&#xe901;" glyph-name="lab" d="M478.145 77.759l-158.145 263.512v106.729h16c8.8 0 16 7.2 16 16s-7.2 16-16 16h-160c-8.8 0-16-7.2-16-16s7.2-16 16-16h16v-106.729l-158.144-263.512c-36.221-60.367-8.256-109.759 62.144-109.759h320c70.4 0 98.365 49.392 62.145 109.759zM120.519 160l103.481 172.469v115.531h64v-115.531l103.482-172.469h-270.963z" />
<glyph unicode="&#xe902;" glyph-name="target" d="M512 256h-50.462c-13.82 89.12-84.418 159.718-173.538 173.538v50.462h-64v-50.462c-89.12-13.82-159.718-84.418-173.538-173.538h-50.462v-64h50.462c13.82-89.12 84.418-159.718 173.538-173.538v-50.462h64v50.462c89.12 13.82 159.718 84.418 173.538 173.538h50.462v64zM396.411 256h-49.881c-9.642 27.275-31.255 48.889-58.53 58.53v49.881c53.757-12.245 96.166-54.655 108.411-108.411zM256 192c-17.673 0-32 14.327-32 32s14.327 32 32 32c17.673 0 32-14.327 32-32s-14.327-32-32-32zM224 364.411v-49.881c-27.275-9.641-48.889-31.255-58.53-58.53h-49.881c12.245 53.756 54.655 96.166 108.411 108.411zM115.589 192h49.881c9.641-27.275 31.255-48.889 58.53-58.53v-49.881c-53.756 12.245-96.166 54.654-108.411 108.411zM288 83.589v49.881c27.275 9.642 48.889 31.255 58.53 58.53h49.881c-12.245-53.757-54.654-96.166-108.411-108.411z" />
<glyph unicode="&#xe903;" glyph-name="support" d="M256 480c-141.385 0-256-114.615-256-256s114.615-256 256-256 256 114.615 256 256-114.615 256-256 256zM160 224c0 53.020 42.98 96 96 96s96-42.98 96-96-42.98-96-96-96-96 42.98-96 96zM462.99 138.262v0l-88.71 36.745c6.259 15.092 9.72 31.638 9.72 48.993s-3.461 33.901-9.72 48.993l88.71 36.745c10.954-26.411 17.010-55.365 17.010-85.738s-6.057-59.327-17.010-85.738v0zM341.739 430.99v0 0l-36.745-88.71c-15.092 6.259-31.638 9.72-48.994 9.72s-33.901-3.461-48.993-9.72l-36.745 88.711c26.411 10.952 55.366 17.009 85.738 17.009s59.327-6.057 85.739-17.010zM49.010 309.738l88.711-36.745c-6.259-15.092-9.721-31.638-9.721-48.993s3.461-33.901 9.72-48.993l-88.71-36.745c-10.953 26.411-17.010 55.365-17.010 85.738s6.057 59.327 17.010 85.738zM170.262 17.010l36.745 88.71c15.092-6.259 31.638-9.72 48.993-9.72s33.901 3.461 48.993 9.72l36.745-88.71c-26.411-10.952-55.365-17.010-85.738-17.010s-59.327 6.057-85.738 17.010z" />
<glyph unicode="&#xe904;" glyph-name="bootstrap" d="M64 479.147c0.758-1.327-2.181-2.56-7.87-3.319-2.844-0.379-5.784-1.043-6.637-1.517-0.948-0.379-4.931-2.37-8.913-4.267-13.654-6.637-25.884-18.868-32.522-32.616-5.025-10.43-5.12-10.43-6.353-16.688-1.422-7.3-1.612-387.887-0.19-395.378 1.233-6.068 3.888-13.274 6.732-17.731 1.232-1.991 2.181-3.982 2.181-4.457 0-1.043 7.395-10.524 10.809-13.938 3.413-3.318 12.895-10.809 13.843-10.809 0.474 0 2.94-1.233 5.404-2.655 4.456-2.655 10.24-4.646 19.532-6.732 6.353-1.422 383.716-1.422 390.068 0 9.292 2.086 15.075 4.077 19.532 6.732 2.465 1.422 4.93 2.655 5.404 2.655 0.948 0 10.43 7.49 13.843 10.809 3.413 3.413 10.809 12.895 10.809 13.938 0 0.474 1.043 2.56 2.37 4.551 2.844 4.646 6.163 13.843 6.163 17.257 0 3.603 0.948 5.594 2.465 5.594 1.138 0 1.327 28.539 1.327 192 0 166.020-0.19 192-1.327 192-1.517 0-1.991 1.327-2.94 7.964-0.38 2.56-0.948 5.31-1.327 6.163-8.628 17.825-13.748 24.937-23.894 33.091-3.224 2.655-9.102 6.352-13.084 8.249s-7.87 3.887-8.818 4.267c-0.853 0.474-3.793 1.138-6.637 1.517-5.689 0.759-8.628 1.991-7.87 3.319 0.38 0.474-70.258 0.853-191.052 0.853s-191.431-0.38-191.052-0.853zM301.89 372.385c23.135-3.508 38.115-10.24 50.916-22.755 15.075-14.791 21.238-34.418 18.868-59.733-0.948-9.766-2.276-14.697-5.974-22.281-6.068-12.611-16.972-23.893-29.014-29.867-2.75-1.422-4.74-3.034-4.551-3.603 0.19-0.663 2.276-1.612 4.551-2.18 17.635-4.457 34.512-19.816 42.003-38.305 0.948-2.37 2.276-5.689 3.034-7.396s1.327-4.267 1.327-5.689c0.095-1.422 0.663-5.12 1.422-8.249 1.801-7.49 1.801-19.248-0.095-30.056-1.991-11.757-4.457-18.774-9.481-27.307-8.913-15.075-21.808-25.505-41.149-33.091-2.844-1.138-6.068-2.465-7.111-2.94-1.043-0.38-5.31-1.517-9.481-2.37s-10.24-2.18-13.464-2.94c-4.836-1.043-20.195-1.327-87.040-1.327h-81.067v150.092c0 82.584 0.285 150.471 0.663 150.755 0.285 0.38 35.555 0.663 78.317 0.663 64.663 0 79.36-0.284 87.325-1.422zM190.103 327.538c-0.663-1.802-0.569-76.516 0.095-78.317 0.474-1.327 4.93-1.517 40.581-1.517 38.495 0.095 57.363 0.853 60.966 2.655 0.948 0.474 3.793 1.897 6.353 3.129 5.784 2.844 12.8 9.577 15.171 14.601 0.948 2.086 2.276 4.646 2.844 5.689s1.138 7.111 1.327 13.463c0.284 9.102 0 12.8-1.327 17.067-3.034 10.050-8.249 16.592-15.929 19.721-2.18 0.853-4.74 2.086-5.784 2.75-1.327 0.663-11.094 1.138-30.341 1.327-15.644 0.095-38.589 0.284-50.916 0.474-18.109 0.19-22.661-0.095-23.040-1.043zM190.198 208.166c-0.285-0.38-0.569-21.238-0.569-46.459v-45.89l51.484 0.38c32.047 0.19 53.191 0.759 56.32 1.422 12.421 2.56 24.083 11.094 29.108 21.049 5.025 10.24 6.637 29.014 3.318 38.874-2.086 6.163-5.5 12.8-8.154 15.834-3.318 3.793-11.662 9.766-13.558 9.766-0.853 0-1.897 0.38-2.465 0.948-1.233 1.233-8.438 2.75-17.446 3.793-8.060 0.948-97.091 1.138-98.038 0.284z" />
<glyph unicode="&#xe905;" glyph-name="mongodb" d="M261.975 480c-10.030-60.175-113.894-110.428-113.894-257.111 0-132.649 73.031-173.097 88.079-179.369 27.577 28.841 23.306 267.233 25.815 436.48zM265.6 447.36c12.8-33.92 96.86-119.158 96.86-224.471s-46.387-154.204-86.502-183.035c0 0 0-40.433 0-49.209s-7.050-13.163-11.438-13.163-12.38 4.075-12.38 10.972 0 48.266 0 48.266c36.352 16.297 15.339 304.702 13.461 410.639z" />
<glyph unicode="&#xe906;" glyph-name="jquery" d="M34.317 353.946c-44.877-64.496-39.286-148.409-5.010-216.945 0.816-1.644 1.67-3.259 2.513-4.88 0.537-1.020 1.044-2.072 1.603-3.080 0.314-0.607 0.669-1.199 0.998-1.779 0.586-1.095 1.182-2.131 1.79-3.199 1.065-1.876 2.158-3.741 3.272-5.606 0.618-1.025 1.228-2.050 1.865-3.074 1.236-1.996 2.502-3.976 3.799-5.943 0.54-0.841 1.065-1.682 1.619-2.494 1.787-2.668 3.614-5.331 5.498-7.944 0.049-0.065 0.103-0.136 0.158-0.201 0.298-0.423 0.629-0.835 0.93-1.253 1.629-2.25 3.313-4.468 5.010-6.669 0.626-0.798 1.261-1.6 1.89-2.402 1.516-1.909 3.061-3.802 4.631-5.693 0.588-0.705 1.177-1.415 1.771-2.109 2.106-2.479 4.256-4.951 6.456-7.375 0.038-0.044 0.089-0.093 0.13-0.136 0.089-0.103 0.168-0.168 0.247-0.266 2.145-2.343 4.338-4.637 6.562-6.925 0.688-0.704 1.394-1.415 2.101-2.12 1.722-1.729 3.471-3.427 5.238-5.135 0.718-0.678 1.429-1.377 2.142-2.033 2.361-2.224 4.745-4.403 7.177-6.529 0.043-0.043 0.073-0.076 0.114-0.092 0.412-0.369 0.84-0.722 1.247-1.063 2.145-1.859 4.325-3.703 6.521-5.515 0.895-0.721 1.8-1.437 2.701-2.152 1.795-1.438 3.608-2.853 5.436-4.246 0.965-0.737 1.933-1.475 2.906-2.213 2.015-1.475 4.045-2.943 6.098-4.37 0.749-0.542 1.472-1.062 2.224-1.578 0.206-0.146 0.396-0.298 0.607-0.438 1.947-1.334 3.934-2.631 5.921-3.916 0.854-0.568 1.703-1.154 2.565-1.707 3.050-1.926 6.144-3.834 9.272-5.684 0.852-0.482 1.708-0.96 2.562-1.442 2.299-1.328 4.612-2.63 6.96-3.904 1.266-0.683 2.57-1.328 3.847-1.979 1.659-0.873 3.302-1.751 4.983-2.586 0.382-0.195 0.778-0.38 1.155-0.559 0.672-0.325 1.355-0.646 2.036-0.987 2.608-1.247 5.238-2.467 7.89-3.654 0.567-0.249 1.112-0.499 1.673-0.743 3.040-1.328 6.106-2.613 9.208-3.834 0.743-0.298 1.494-0.585 2.243-0.884 2.866-1.101 5.77-2.19 8.684-3.216 0.371-0.13 0.727-0.249 1.092-0.373 3.202-1.123 6.434-2.158 9.69-3.173 0.775-0.228 1.556-0.478 2.337-0.705 3.313-0.997 6.583-2.185 10.005-2.819 217.021-39.574 280.061 130.418 280.061 130.418-52.942-68.976-146.924-87.174-235.967-66.914-3.376 0.759-6.646 1.811-9.938 2.787-0.837 0.249-1.656 0.498-2.48 0.753-3.213 0.987-6.399 2.022-9.568 3.112-0.434 0.152-0.873 0.314-1.315 0.473-2.838 0.997-5.642 2.049-8.438 3.129-0.789 0.314-1.578 0.612-2.364 0.927-3.063 1.209-6.108 2.473-9.11 3.79-0.621 0.261-1.212 0.537-1.819 0.809-2.583 1.166-5.138 2.342-7.689 3.568-0.732 0.357-1.47 0.704-2.218 1.067-1.996 0.971-3.975 2.007-5.943 3.021-1.32 0.694-2.662 1.355-3.966 2.077-2.408 1.29-4.772 2.63-7.123 3.996-0.8 0.45-1.605 0.879-2.408 1.34-3.129 1.843-6.22 3.752-9.278 5.688-0.843 0.536-1.67 1.111-2.502 1.664-2.218 1.432-4.428 2.885-6.6 4.393-0.721 0.477-1.42 1.008-2.128 1.491-2.102 1.48-4.178 2.987-6.242 4.511-0.933 0.689-1.857 1.405-2.765 2.094-1.89 1.447-3.771 2.9-5.631 4.403-0.838 0.667-1.681 1.339-2.511 2.012-2.367 1.946-4.704 3.898-7.014 5.905-0.241 0.217-0.504 0.423-0.767 0.645-2.495 2.196-4.951 4.447-7.372 6.708-0.705 0.672-1.388 1.323-2.077 2.001-1.797 1.702-3.562 3.427-5.297 5.189-0.694 0.694-1.394 1.383-2.077 2.071-2.209 2.267-4.376 4.555-6.501 6.881-0.106 0.114-0.217 0.217-0.32 0.342-2.248 2.457-4.444 4.967-6.594 7.505-0.583 0.694-1.149 1.366-1.727 2.050-1.602 1.931-3.191 3.889-4.742 5.867-0.586 0.705-1.168 1.438-1.744 2.164-1.865 2.424-3.692 4.836-5.482 7.299-49.439 67.423-67.2 160.431-27.689 236.813zM173.617 408.286c-32.454-46.705-30.691-109.215-5.376-158.61 4.246-8.28 9.018-16.311 14.356-23.962 4.861-6.968 10.249-15.259 16.701-20.854 2.343-2.576 4.786-5.092 7.283-7.56 0.632-0.651 1.277-1.264 1.922-1.903 2.421-2.343 4.888-4.658 7.437-6.903 0.105-0.087 0.198-0.189 0.304-0.26 0.027-0.032 0.054-0.044 0.070-0.076 2.82-2.468 5.731-4.848 8.689-7.185 0.656-0.499 1.307-1.025 1.971-1.54 2.963-2.272 5.987-4.512 9.088-6.638 0.092-0.064 0.171-0.13 0.263-0.206 1.367-0.938 2.763-1.821 4.146-2.728 0.667-0.434 1.299-0.895 1.969-1.301 2.212-1.416 4.455-2.799 6.735-4.127 0.322-0.201 0.64-0.363 0.952-0.548 1.965-1.133 3.958-2.25 5.957-3.329 0.697-0.396 1.407-0.737 2.118-1.106 1.38-0.722 2.76-1.453 4.167-2.158 0.203-0.098 0.423-0.195 0.626-0.282 2.86-1.409 5.748-2.766 8.692-4.045 0.627-0.276 1.277-0.525 1.92-0.791 2.351-0.998 4.731-1.975 7.117-2.891 1.014-0.385 2.039-0.748 3.053-1.123 2.166-0.803 4.347-1.539 6.54-2.277 0.992-0.314 1.965-0.64 2.958-0.943 3.12-0.965 6.203-2.19 9.456-2.732 167.56-27.764 206.247 101.25 206.247 101.25-34.875-50.212-102.405-74.186-174.468-55.478-3.199 0.84-6.353 1.757-9.486 2.744-0.96 0.292-1.903 0.607-2.853 0.922-2.229 0.721-4.444 1.49-6.64 2.287-1.006 0.364-2.010 0.732-2.996 1.112-2.408 0.927-4.786 1.882-7.145 2.885-0.643 0.276-1.296 0.521-1.925 0.813-2.958 1.285-5.87 2.646-8.744 4.056-1.478 0.728-2.928 1.491-4.381 2.234-0.841 0.439-1.687 0.873-2.53 1.307-1.868 1.015-3.72 2.061-5.55 3.129-0.431 0.249-0.884 0.482-1.323 0.749-2.271 1.328-4.506 2.694-6.719 4.099-0.683 0.439-1.339 0.911-2.022 1.356-1.461 0.948-2.92 1.908-4.352 2.879-3.088 2.125-6.095 4.359-9.056 6.626-0.683 0.537-1.369 1.063-2.039 1.6-31.546 24.906-56.543 58.943-68.43 97.53-12.458 40.029-9.776 84.95 11.808 121.411zM290.774 448.884c-19.131-28.154-21.010-63.119-7.735-94.217 13.998-33.007 42.684-58.9 76.168-71.171 1.38-0.515 2.757-0.976 4.159-1.448 0.609-0.19 1.214-0.396 1.832-0.575 1.972-0.623 3.932-1.345 5.971-1.729 92.52-17.878 117.615 47.48 124.296 57.1-21.986-31.651-58.925-39.249-104.254-28.252-3.582 0.879-7.519 2.169-10.968 3.395-4.425 1.573-8.784 3.373-13.024 5.406-8.047 3.867-15.718 8.562-22.835 13.931-40.558 30.778-65.759 89.488-39.291 137.305z" />
<glyph unicode="&#xe907;" glyph-name="angular-alt" d="M255.982 416l187.967-69.105-39.17-230.389-148.881-79.949-148.812 80.051-39.055 230.282 187.951 69.11zM255.981 448l-223.981-80 46.12-272 177.88-96 177.75 96 46.25 272-224.019 80zM344 128h40l-128 280-128-280h40l26.584 56h122.827l26.589-56zM213.573 224l42.419 89.356 42.427-89.356h-84.846z" />
<glyph unicode="&#xe908;" glyph-name="nodejs" horiz-adv-x="395" d="M197.451 34.56c-5.968 0-11.895 1.562-17.113 4.582l-54.505 32.248c-8.133 4.554-4.164 6.164-1.485 7.103 10.867 3.768 13.061 4.635 24.65 11.207 1.208 0.678 2.804 0.423 4.053-0.309l41.861-24.858c1.527-0.841 3.664-0.841 5.066 0l163.224 94.214c1.527 0.868 2.498 2.618 2.498 4.418v188.374c0 1.843-0.971 3.567-2.526 4.5l-163.168 94.137c-1.513 0.879-3.512 0.879-5.038 0l-163.127-94.164c-1.582-0.905-2.581-2.683-2.581-4.472v-188.374c0-1.8 1-3.508 2.567-4.365l44.72-25.834c24.261-12.128 39.127 2.158 39.127 16.509v185.987c0 2.629 2.109 4.705 4.733 4.705h20.708c2.582 0 4.719-2.077 4.719-4.705v-185.987c0-32.378-17.627-50.948-48.328-50.948-9.438 0-16.864 0-37.6 10.22l-42.804 24.642c-10.576 6.11-17.113 17.539-17.113 29.776v188.374c0 12.242 6.537 23.665 17.113 29.754l163.238 94.322c10.327 5.844 24.053 5.844 34.297 0l163.224-94.322c10.576-6.115 17.142-17.512 17.142-29.754v-188.374c0-12.237-6.565-23.623-17.142-29.776l-163.085-94.251c-5.219-3.020-11.131-4.582-17.183-4.582zM247.834 164.344c-71.439 0-86.4 32.786-86.4 60.29 0 2.613 2.109 4.701 4.719 4.701h21.111c2.359 0 4.316-1.692 4.691-3.996 3.179-21.487 12.686-32.33 55.879-32.33 34.379 0 49.023 7.779 49.023 26.024 0 10.518-4.15 18.325-57.587 23.556-44.665 4.419-72.285 14.287-72.285 50.017 0 32.936 27.759 52.578 74.297 52.578 52.298 0 78.17-18.151 81.445-57.089 0.125-1.345-0.347-2.63-1.236-3.633-0.902-0.937-2.151-1.508-3.456-1.508h-21.194c-2.193 0-4.136 1.562-4.58 3.688-5.080 22.609-17.447 29.836-50.98 29.836-37.544 0-41.903-13.083-41.903-22.88 0-11.873 5.149-15.332 55.838-22.038 50.161-6.632 73.992-16.021 73.992-51.28 0-35.567-29.661-55.936-81.376-55.936z" />
<glyph unicode="&#xe909;" glyph-name="reactjs" d="M212.736 224.341c0 23.637 19.2 42.837 42.838 42.837s42.838-19.2 42.838-42.837c0-23.637-19.2-42.837-42.838-42.837s-42.838 19.2-42.838 42.838zM495.19 224.341c0-29.44-34.731-59.221-90.709-77.738-2.901-0.938-5.888-1.877-8.96-2.816 1.11-4.352 2.048-8.618 2.901-12.8 5.205-26.454 6.058-51.029 2.389-70.998-3.925-21.248-12.8-36.352-25.6-43.776-6.4-3.755-13.995-5.632-22.442-5.632-23.211 0-52.651 13.995-83.37 40.448-4.352 3.755-8.618 7.68-12.971 11.861-3.328-3.243-6.656-6.315-9.984-9.216-20.309-17.75-41.216-30.72-60.331-37.462-9.984-3.584-19.37-5.376-27.733-5.376-8.704 0-16.384 1.877-22.869 5.632-24.49 14.166-33.024 54.954-22.698 109.142 1.024 5.546 2.304 11.264 3.755 17.067-4.522 1.28-8.874 2.646-13.056 4.096-25.514 8.704-47.19 20.31-62.635 33.536-16.384 13.995-25.088 29.269-25.088 44.032 0 28.331 31.062 56.064 83.2 74.154 5.718 1.962 11.691 3.84 17.834 5.632-1.365 5.376-2.56 10.666-3.584 15.872-5.034 25.77-5.974 49.408-2.731 68.438 3.584 20.736 12.032 35.498 24.576 42.752 25.429 14.762 68.694-0.426 112.726-39.594 2.645-2.389 5.291-4.864 8.022-7.424 4.010 3.84 8.022 7.51 11.947 11.008 19.798 17.238 39.851 29.867 57.942 36.523 19.712 7.253 36.779 7.253 49.238 0.085 25.514-14.678 33.962-59.733 22.016-117.418-0.683-3.498-1.536-6.998-2.389-10.582 5.291-1.536 10.411-3.157 15.36-4.864 24.832-8.534 45.738-19.627 60.587-31.915 16.128-13.482 24.661-28.245 24.661-42.666zM270.166 369.579c13.654-14.678 27.306-31.744 40.448-50.517 22.613-2.134 44.202-5.547 64.171-10.155 0.768 3.243 1.536 6.4 2.134 9.558 11.178 54.358 1.536 87.637-12.202 95.574-6.998 4.010-18.346 3.498-32-1.536-15.786-5.802-33.621-17.152-51.541-32.768-3.67-3.157-7.339-6.57-11.008-10.154zM141.91 157.44c13.654-2.986 28.416-5.376 44.118-7.082-5.12 8.022-10.155 16.214-15.018 24.576-4.779 8.192-9.302 16.469-13.568 24.747-6.059-14.336-11.35-28.587-15.53-42.24zM171.008 272.726c4.779 8.192 9.643 16.298 14.678 24.149-15.19-1.877-29.781-4.438-43.52-7.424 4.181-13.483 9.302-27.392 15.274-41.558 4.267 8.278 8.79 16.554 13.568 24.832zM188.757 185.173c7.424-12.8 15.274-25.259 23.466-37.12 13.91-0.853 28.416-1.365 43.35-1.365 15.018 0 29.696 0.512 43.862 1.536 7.765 11.69 15.445 24.064 23.040 37.12 7.51 12.971 14.421 26.026 20.651 38.827-6.229 12.544-13.056 25.344-20.651 38.4-7.424 12.885-15.19 25.173-23.125 36.949-14.25 1.11-28.928 1.622-43.776 1.622-14.678 0-29.355-0.598-43.69-1.707-8.022-11.776-15.872-24.149-23.21-36.95-7.339-12.714-14.166-25.685-20.394-38.656 6.23-12.885 13.056-25.856 20.48-38.656zM325.546 150.699c15.786 1.877 30.805 4.438 44.714 7.594-4.267 13.397-9.642 27.563-16.128 42.24-4.352-8.448-9.046-16.981-13.909-25.43-4.864-8.363-9.728-16.555-14.678-24.406zM369.238 289.195c-13.824 3.157-28.502 5.718-43.776 7.68 4.95-7.765 9.813-15.786 14.592-23.978 4.864-8.448 9.472-16.81 13.824-25.002 6.058 14.166 11.264 28.075 15.36 41.302zM227.328 320.938c9.302 0.427 18.688 0.683 28.16 0.683 9.642 0 19.115-0.256 28.587-0.683-9.301 12.374-18.774 23.808-28.245 34.048-9.643-10.325-19.2-21.76-28.501-34.048zM133.376 323.925c0.939-4.864 2.048-9.728 3.328-14.762 19.882 4.523 41.472 7.851 64.085 9.984 13.142 18.517 26.88 35.498 40.79 50.517-2.389 2.304-4.779 4.522-7.168 6.57-41.642 36.864-75.264 45.142-89.002 37.206-6.998-4.011-12.202-14.166-14.678-28.502-2.816-16.555-1.963-37.718 2.645-61.013zM145.664 223.744c-9.472 20.65-17.408 41.046-23.382 60.587-5.718-1.621-11.178-3.328-16.469-5.206-47.958-16.726-69.462-39.594-69.462-54.869 0-15.872 23.126-40.875 73.814-58.197 3.84-1.28 7.766-2.56 11.862-3.755 6.059 19.882 13.994 40.534 23.637 61.44zM242.090 77.483c-14.080 15.019-27.904 32.171-41.131 50.858-23.381 1.877-45.056 5.034-64.512 9.387-1.365-5.462-2.475-10.752-3.499-15.872-9.472-49.92-0.341-79.957 12.8-87.552 13.738-7.936 46.934-0.426 87.296 34.901 2.901 2.56 5.974 5.376 9.046 8.277zM284.502 126.89c-9.472-0.426-19.2-0.683-28.928-0.683-9.558 0-18.858 0.171-27.989 0.512 9.472-12.459 19.114-23.978 28.843-34.474 9.301 10.325 18.774 21.846 28.075 34.645zM378.454 126.976c-0.768 3.84-1.622 7.68-2.646 11.69-19.798-4.608-41.642-7.936-64.853-9.984-13.226-19.2-26.795-36.352-40.192-51.029 4.010-3.925 8.106-7.594 12.032-11.008 38.486-33.109 69.034-40.277 82.262-32.598 13.738 7.851 23.808 40.363 13.397 92.928zM474.795 224.341c0 8.107-6.144 17.664-17.322 26.965-12.885 10.752-31.659 20.566-54.101 28.331-4.608 1.536-9.387 3.072-14.25 4.522-5.888-19.029-13.738-39.253-23.382-59.904 10.070-21.248 18.262-41.643 24.235-60.672 2.731 0.853 5.462 1.707 8.106 2.56 52.651 17.408 76.714 42.411 76.714 58.197z" />
<glyph unicode="&#xf105;" glyph-name="uniF105" horiz-adv-x="425" d="M40.48 479.040v0.002h345.118c17.408 0 31.683-14.368 31.683-30.24v-0.48c0-1.024-0.481-2.656-0.481-3.68l-33.761-309.76c0.522-12.283-6.18-23.971-17.439-29.603l-137.277-67.677c-4.608-2.043-9.155-3.041-13.763-3.041s-9.308 1.003-13.916 3.041l-137.605 67.677c-6.142 3.072-11.325 7.623-14.398 13.762-2.56 3.589-4.127 7.711-4.639 12.319l-34.721 312.32c0 1.024-1.6 2.496-1.6 3.52v0.48c0 16.896 15.391 31.36 32.8 31.36zM331.521 377.605c-14.331 0-24.786-3.154-31.36-9.441-6.574-6.211-9.759-16.139-9.759-29.922v-22.077c0-10.711-1.731-18.099-5.279-22.241-3.553-4.143-10.025-6.241-19.363-6.236h-6.077v-23.844h6.077c9.339 0 15.81-2.027 19.363-6.241 3.548-4.137 5.279-11.684 5.279-22.395v-20.48c0-13.783 3.185-23.798 9.759-30.085 6.574-6.282 17.029-9.436 31.36-9.436h21.442v23.998h-6.723c-9.272 0-15.411 1.659-18.243 4.803-2.76 3.067-4.158 9.625-4.158 19.84v17.761c0 11.136-1.362 19.246-4.322 24.32-2.892 5.069-8.058 8.627-15.36 10.558 7.235 1.787 12.401 5.171 15.36 10.24s4.322 13.271 4.322 24.479v17.761c0 10.137 1.398 16.768 4.158 19.84 2.832 3.143 8.97 4.639 18.243 4.639h6.723v24.161h-21.442zM148 365.122c-11.833 0-23.352-2.34-34.397-7.199-10.983-4.853-20.68-11.786-28.963-20.639-8.284-8.924-14.567-19.256-19.041-31.042-4.47-11.781-6.718-24.12-6.718-37.12 0-13.491 2.156-26.137 6.559-37.919 4.408-11.709 10.787-22.113 19.2-31.037 8.417-8.93 18.017-15.678 28.8-20.322 10.782-4.711 22.4-7.040 34.56-7.040 9.994 0 19.779 1.889 29.44 5.601 9.733 3.64 18.662 8.913 26.88 15.841l-10.558 17.275c-5.852-5.709-12.836-10.24-21.12-13.599-8.285-3.353-16.676-4.956-24.96-4.956-9.667 0-18.653 1.884-27.203 5.596-8.479 3.646-16.144 8.842-22.718 15.841-6.641 7.142-11.653 15.355-15.201 24.642-3.487 9.355-5.278 19.435-5.278 30.075 0 12.928 2.769 24.935 8.161 36.004 5.453 11.136 12.99 20.198 22.718 27.197 5.919 4.213 12.391 7.301 19.359 9.441 6.968 2.212 14.295 3.358 21.923 3.358 10.911 0 21.064-2.324 30.398-7.040 9.4-4.71 17.116-11.448 23.363-20.157 3.876-5.212 6.892-10.998 8.797-17.28 1.91-6.216 2.719-12.862 2.724-20.004-0.005-11.207-2.217-20.464-6.881-27.678-4.669-7.137-11.049-11.285-19.2-12.637v74.24h-20.644v-14.080c-1.971 5.069-5.191 8.981-9.595 11.837-4.341 2.857-9.513 4.322-15.36 4.322-11.244 0-20.424-4.516-27.525-13.44-7.097-8.93-10.558-20.439-10.558-34.719 0-14.285 3.522-25.959 10.558-34.882 7.102-8.852 16.215-13.281 27.525-13.281 5.847 0 11.018 1.377 15.36 4.162 4.404 2.857 7.624 6.927 9.595 12.001v-16.481h3.84c19.528 0 34.565 5.289 45.281 16s16.159 25.769 16.159 45.118c0 9-1.275 17.459-3.84 25.6-2.494 8.213-6.267 15.882-11.197 22.881-8.084 11.494-18.207 20.332-30.238 26.399-12.032 6.144-25.273 9.118-40.002 9.118zM146.561 296.806c5.919 0 10.594-2.612 14.080-7.68 3.548-5.002 5.279-11.843 5.279-20.48 0-8.714-1.633-15.662-5.12-20.803-3.482-5.069-8.228-7.521-14.080-7.516-5.914-0.005-10.594 2.447-14.080 7.516-3.421 5.069-5.12 12.017-5.12 20.803 0 8.637 1.7 15.478 5.12 20.48 3.487 5.069 8.136 7.68 13.921 7.68z" />
<glyph unicode="&#xf120;" glyph-name="uniF120" horiz-adv-x="463" d="M121.706 47.47l0.194-0.386 0.059 0.417 1.704 0.214-0.007-0.173 289.529-11.482-393.831-1.501zM324.871 206.031l118.576-160.344-306.243 12.147zM455.381 47.736l-122.272 165.353 105.57 197.614zM8.018 86.184l14.002 134.37 24.326-20.842-38.666-120.775zM53.76 182.596l61.078-121.454-102.678-12.959zM114.079 89.573l-56.129 111.779 78.941 50.194zM314.334 216.099l-189.814-149.911 25.311 184.373zM239.789 361.239l70.555-133.659-159.307 35.288zM252.673 361.382l167.45 44.808-96.15-179.735zM246.947 373.399l23.192 60.055 131.052-21.267zM437.022 418.227l-139.997 24.569 111.841 36.355zM364.827 480l-105.69-34.356-19.13 5.147zM231.398 373.349l-95.058-106.032-84.861-53.003-24.015 20.567 34.024 63.373 80.389 89.732 76.758 53.613 35.499-9.548z" />
<glyph unicode="&#xf124;" glyph-name="uniF124" horiz-adv-x="355" d="M346.296 435.197c0-24.728-75.57-44.798-168.684-44.798s-168.684 20.070-168.684 44.798 75.57 44.798 168.684 44.798c93.113 0 168.684-20.070 168.684-44.798zM9.059 401.562c0 0 1.623-11.295 36.627-23.16 9.535-3.232 28.063-7.395 42.422-9.92 22.871-4.021 51.594-6.561 87.486-6.581 18.868-0.011 36.178 0.446 52.644 1.936 23.172 2.097 27.114 2.884 45.507 5.896 17.587 2.88 34.476 7.869 46.854 12.784 21.375 8.487 25.981 19.044 25.981 19.044v-89.053s-15.598-20.194-58.271-28.315c-14.978-2.851-20.918-5.554-48.218-8.282-23.717-2.371-54.943-3.505-64.732-3.509-9.792-0.004-34.377-0.090-74.45 6.034-24.284 3.712-47.746 8.709-59.474 13.374-23.568 9.38-32.373 20.7-32.373 20.7zM8.596 284.206c0 0 1.623-11.295 36.627-23.16 9.535-3.232 28.063-7.395 42.422-9.919 22.871-4.021 51.595-6.561 87.485-6.581 18.868-0.011 36.178 0.446 52.644 1.936 23.172 2.097 27.114 2.883 45.507 5.896 17.586 2.88 34.476 7.869 46.853 12.784 21.375 8.487 25.981 19.043 25.981 19.043v-89.052s-15.597-20.194-58.27-28.315c-14.978-2.851-20.918-5.555-48.218-8.283-23.716-2.371-54.942-3.505-64.732-3.509-9.792-0.004-34.376-0.090-74.45 6.034-24.284 3.707-47.748 8.704-59.474 13.368-23.567 9.38-32.373 20.7-32.373 20.7zM7.68 163.717c0 0 1.623-11.294 36.627-23.159 9.535-3.232 28.063-7.395 42.422-9.919 22.871-4.021 51.595-6.561 87.485-6.581 18.868-0.010 36.178 0.447 52.644 1.937 23.172 2.097 27.114 2.884 45.507 5.896 17.586 2.88 34.476 7.87 46.853 12.784 21.375 8.487 25.981 19.043 25.981 19.043v-89.052s-15.597-20.195-58.271-28.315c-14.978-2.851-20.918-5.555-48.218-8.283-23.717-2.371-54.943-3.505-64.732-3.509-9.792-0.004-34.376-0.091-74.45 6.034-24.279 3.717-47.742 8.709-59.468 13.378-23.567 9.38-32.373 20.7-32.373 20.7z" />
<glyph unicode="&#xf13b;" glyph-name="uniF13B" horiz-adv-x="413" d="M50.329 91.541l24.574 0.002c19.429 0 36.252-2.887 36.252-25.183-1.272-24.303-18.075-24.574-18.075-24.574l23.355-23.356h-29.448l-17.465 17.466v-19.599h-19.192v75.243zM70.435 71.131v-13.404h16.552v13.404h-16.552zM153.501 91.233c1.501-0.010 2.883 0 4.163 0 10.238 0 29.347-0.673 29.347-17.872v-54.835h-19.802v12.49h-19.090v-12.795h-19.7v52.296c0 19.8 14.575 20.774 25.082 20.716zM148.424 72.346v-20.614h18.481v20.614h-18.481zM206.744 91.187h20.384v-71.982h-20.384v71.982zM248.472 90.23l20.066 0.32v-53.192h28.983v-19.111h-49.050v71.983zM362.495 90.87v-19.429h-32.806v-7.007h14.014c7.325 0 22.614 0.318 22.614-22.614s-10.511-24.206-31.851-24.206h-25.799v17.517h29.621c8.918 0 9.41 2.903 9.41 5.433s-4.56 3.707-13.832 3.707-26.473 4.556-26.473 22.393 8.918 24.525 26.755 24.525 28.346-0.318 28.346-0.318zM68.198 112.845l-0.003-0.003s-4.459 28.027 6.37 81.536c10.828 53.51 26.752 89.185 54.144 140.145 27.392 50.964 71.342 93.006 135.045 98.739s114.028-45.228 114.028-45.228l-7.644-11.466s-19.108 21.659-54.144 17.837c-35.036-3.825-96.825-39.496-106.378-117.847-9.555-78.351 28.028-163.712 28.028-163.712h-169.446zM34.435 198.205l33.125-2.548-5.733-33.125-31.213 3.822zM86.67 268.278l-29.939 9.554 9.555 26.755 29.303-11.466zM128.076 353.634l-22.933 15.288 17.836 19.748 22.296-14.651zM173.306 432.625l21.021 10.829 15.288-17.199-21.022-12.103zM247.833 453.646l27.391-1.274 2.548-16.562-26.118-0.637zM336.378 433.899l21.022-15.288-3.822-5.733-17.837 9.555zM332.558 384.85l17.2-3.822v-7.644l-17.2 1.911v9.555zM277.774 376.566l17.837 4.459 2.548-10.192-12.103-9.555zM251.657 356.818l12.74-19.111-7.644-13.377-18.474 20.384zM226.175 303.949l18.474-14.014-5.096-21.022-21.659 18.474zM217.256 245.98l24.207-12.74 1.274-21.021-26.755 11.466zM224.9 166.989l28.029-0 12.103-24.843-33.762 1.911zM101.252 480l0.001 0.003h303.043l-0.005-4.802v-344.478c0-56.464 4.502-96.036-6.56-123.362-5.531-13.662-15.524-23.902-31.040-30.24s-36.447-9.12-65.28-9.12c-114.094 0-288 1.12-288 1.12h-4.96l0.16 4.96s0.64 121.211 0.64 244.48c0 119.26-5.28 182.947 3.52 219.038 4.401 18.046 13.37 29.593 27.84 35.52 14.472 5.927 33.721 6.88 60.642 6.88zM101.254 470.244l-0.001-0.003c-26.65 0-45.069-1.21-56.96-6.080s-18.117-12.709-22.080-28.959c-7.925-32.502-3.2-97.106-3.2-216.637 0-120.811-0.77-234.911-0.796-239.678 5.637-0.036 171.064-1.12 283.197-1.12 28.198 0 48.052 2.786 61.599 8.32s21.058 13.344 25.76 24.96c9.405 23.229 5.76 62.755 5.76 119.68v339.517h-293.279z" />
<glyph unicode="&#xf148;" glyph-name="uniF148" horiz-adv-x="444" d="M315.405 251.311c5.721 0.44 6.522 0.44 12.603-0.040 12.403-0.921 21.805-3.921 30.608-9.762 4.761-3.161 11.683-10.363 15.524-16.124 1.8-2.72 3.281-5.041 3.281-5.201 0-0.28-29.087-19.084-30.127-19.524-0.32-0.12-1.24 0.96-2.481 2.921-1.080 1.721-3.401 4.562-5.201 6.322-5.082 5.122-10.082 7.122-17.805 7.122-6.801 0.040-11.202-1.68-15.003-5.801-2.64-2.841-3.841-5.762-4.121-10.082-0.32-5.441 1.16-9.803 4.641-13.523 3.641-3.881 9.163-6.922 25.647-14.003 21.805-9.363 32.728-15.844 41.17-24.406 4.401-4.481 6.962-8.042 9.522-13.324 3.721-7.721 5.361-15.524 5.361-25.526 0-15.644-4.921-28.127-14.923-37.769-9.402-9.123-21.526-14.483-37.69-16.764-6.442-0.88-19.045-0.921-25.766 0-25.687 3.44-44.691 15.443-56.854 35.928-1.56 2.56-1.881 3.401-1.481 3.761 0.641 0.6 31.087 18.164 31.448 18.164 0.16 0 1.32-1.521 2.601-3.361 9.362-13.844 21.005-20.245 36.609-20.245 9.242 0 16.684 2.521 21.405 7.282 1.401 1.4 2.961 3.481 3.561 4.721 3.080 6.401 1.721 14.764-3.161 20.005-3.961 4.241-10.163 7.642-26.846 14.803-12.243 5.281-19.325 8.682-24.526 11.803-20.445 12.363-29.607 27.966-29.607 50.292 0 14.923 4.641 26.686 14.363 36.329 9.442 9.362 22.125 14.803 37.249 16.004zM190.855 178.613l0.16 70.697h39.169v-70.938c0-47.051-0.16-72.058-0.4-74.298-2.761-22.125-13.203-37.009-31.007-44.211-14.844-5.962-35.089-6.442-50.852-1.2-14.924 4.961-27.327 15.764-34.489 30.048l-1.201 2.401 15.804 9.602c8.682 5.241 15.924 9.603 16.084 9.683 0.12 0.040 1.16-1.521 2.321-3.441 7.161-12.243 13.323-16.604 23.606-16.564 7.202 0.040 11.523 1.44 14.884 4.801 2.4 2.401 3.761 5.001 4.921 9.362l0.881 3.321zM55.78 438.194c-26.608 0-48.1-21.492-48.1-48.1v-332.182c0-26.608 21.492-48.1 48.1-48.1h332.182c26.608 0 48.1 21.492 48.1 48.1v332.182c0 26.608-21.492 48.1-48.1 48.1h-332.182zM55.78 412.594h332.182c12.505 0 22.5-9.996 22.5-22.5v-332.182c0-12.505-9.995-22.5-22.5-22.5h-332.182c-12.504 0-22.5 9.995-22.5 22.5v332.182c0 12.504 9.996 22.5 22.5 22.5z" />
<glyph unicode="&#xf14c;" glyph-name="uniF14C" horiz-adv-x="411" d="M205.144 34.56c-5.968 0-11.894 1.562-17.113 4.582l-54.505 32.248c-8.133 4.555-4.163 6.164-1.485 7.103 10.868 3.768 13.060 4.635 24.65 11.207 1.207 0.678 2.803 0.423 4.053-0.31l41.861-24.858c1.526-0.841 3.665-0.841 5.066 0l163.224 94.213c1.526 0.868 2.498 2.619 2.498 4.419v188.374c0 1.843-0.971 3.567-2.526 4.5l-163.169 94.137c-1.512 0.879-3.511 0.879-5.038 0l-163.127-94.165c-1.582-0.904-2.581-2.683-2.581-4.472v-188.374c0-1.8 0.999-3.508 2.568-4.365l44.72-25.834c24.262-12.128 39.127 2.158 39.127 16.509v185.987c0 2.629 2.109 4.705 4.733 4.705h20.708c2.582 0 4.719-2.077 4.719-4.705v-185.987c0-32.378-17.627-50.947-48.328-50.947-9.439 0-16.864 0-37.6 10.219l-42.805 24.642c-10.576 6.11-17.113 17.539-17.113 29.776v188.374c0 12.242 6.537 23.665 17.113 29.754l163.238 94.322c10.326 5.844 24.053 5.844 34.297 0l163.224-94.322c10.577-6.115 17.142-17.512 17.142-29.754v-188.374c0-12.237-6.565-23.623-17.142-29.776l-163.085-94.251c-5.219-3.020-11.131-4.581-17.183-4.581zM255.527 164.344c-71.438 0-86.4 32.786-86.4 60.29 0 2.613 2.109 4.701 4.719 4.701h21.111c2.359 0 4.316-1.692 4.691-3.996 3.179-21.487 12.686-32.33 55.879-32.33 34.38 0 49.023 7.779 49.023 26.024 0 10.518-4.15 18.326-57.587 23.556-44.665 4.419-72.285 14.287-72.285 50.017 0 32.936 27.76 52.579 74.297 52.579 52.299 0 78.17-18.152 81.445-57.090 0.125-1.344-0.347-2.63-1.236-3.633-0.902-0.937-2.151-1.508-3.456-1.508h-21.194c-2.193 0-4.136 1.562-4.58 3.688-5.080 22.609-17.447 29.836-50.98 29.836-37.544 0-41.902-13.083-41.902-22.88 0-11.873 5.149-15.332 55.837-22.038 50.161-6.632 73.993-16.021 73.993-51.28 0-35.567-29.661-55.936-81.376-55.936z" />
</font>
</defs>
</svg>
