<svg xmlns="http://www.w3.org/2000/svg" xmlns:xlink="http://www.w3.org/1999/xlink" width="458" height="449" viewBox="0 0 458 449">
    <defs>
        <linearGradient id="prefix__b" x1="6.551%" x2="79.189%" y1="71.562%" y2="42.82%">
            <stop offset="0%" stop-color="#3FCDE2"/>
            <stop offset="100%" stop-color="#0070BC"/>
        </linearGradient>
        <linearGradient id="prefix__e" x1="0%" x2="100%" y1="50%" y2="50%">
            <stop offset="0%" stop-color="#3FCDE2"/>
            <stop offset="100%" stop-color="#04899E"/>
        </linearGradient>
        <path id="prefix__a" d="M.085 47.474v401.788h304.636c8.143-55.934-19.929-122.571-68.099-137.221-82.206-24.535-138.593-51.374-150.528-100.435C66.933 132.843 159.948 48.773 119.1 11.711 111.976 4.183 102.545.719 91.529.719 66.454.717 33.151 18.664.085 47.474"/>
        <path id="prefix__d" d="M502.628 281.262H.085V117.386C25.704 44.764 67.362-8.39 105.949 1.332c58.024 10.07 9.129 133.637 66.669 191.736 35.842 36.19 103.922 28.94 195.964 5.682 54.111-13.402 114.377 29.395 134.046 82.512"/>
    </defs>
    <g fill="none" fill-rule="evenodd">
        <g transform="translate(-45 -1) translate(0 .74)">
            <mask id="prefix__c" fill="#fff">
                <use xlink:href="#prefix__a"/>
            </mask>
            <path fill="url(#prefix__b)" d="M.085 47.474v401.788h304.636c8.143-55.934-19.929-122.571-68.099-137.221-82.206-24.535-138.593-51.374-150.528-100.435C66.933 132.843 159.948 48.773 119.1 11.711 111.976 4.183 102.545.719 91.529.719 66.454.717 33.151 18.664.085 47.474" mask="url(#prefix__c)"/>
        </g>
        <g opacity=".7" transform="translate(-45 -1) translate(0 168.74)">
            <mask id="prefix__f" fill="#fff">
                <use xlink:href="#prefix__d"/>
            </mask>
            <path fill="url(#prefix__e)" d="M368.582 198.75c-92.042 23.258-160.122 30.508-195.964-5.682-57.54-58.099-8.645-181.666-66.669-191.736C25.023-19.059-69.41 237.11-1.07 369.399c70.531 136.532 238.388 190.036 374.92 119.506 61.727-31.888 106.481-83.669 130.476-143.455 26.617-75.332-60.511-165.333-135.744-146.7" mask="url(#prefix__f)"/>
        </g>
    </g>
</svg>
