<svg xmlns="http://www.w3.org/2000/svg" xmlns:xlink="http://www.w3.org/1999/xlink" width="458" height="449" viewBox="0 0 458 449">
    <defs>
        <linearGradient id="khme9fs10b" x1="0%" x2="100%" y1="50%" y2="50%">
            <stop offset="0%" stop-color="#0070BC"/>
            <stop offset="100%" stop-color="#3FCDE2"/>
        </linearGradient>
        <linearGradient id="aawss6ubfe" x1="0%" x2="100%" y1="50%" y2="50%">
            <stop offset="0%" stop-color="#EF6059"/>
            <stop offset="100%" stop-color="#C33F2F"/>
        </linearGradient>
        <path id="12ou9mijwa" d="M502.628 281.262H.085V117.385C25.704 44.764 67.362-8.391 105.949 1.332c58.023 10.07 9.13 133.637 66.669 191.736 35.843 36.19 103.922 28.94 195.965 5.682 54.11-13.402 114.376 29.395 134.045 82.512"/>
        <path id="0clkzhissd" d="M304.72 449.262H.086V47.474c47.594-41.47 95.677-60.426 119.014-35.763 40.849 37.062-52.166 121.132-33.006 199.895 11.936 49.061 68.323 75.9 150.529 100.435 48.17 14.65 76.241 81.286 68.099 137.221"/>
    </defs>
    <g fill="none" fill-rule="evenodd">
        <g transform="translate(-45 -1) translate(0 168.74)">
            <mask id="9l2459r6qc" fill="#fff">
                <use xlink:href="#12ou9mijwa"/>
            </mask>
            <path fill="url(#khme9fs10b)" d="M368.583 198.75c-92.043 23.258-160.122 30.508-195.965-5.682-57.539-58.099-8.646-181.666-66.669-191.736C25.022-19.059-69.41 237.11-1.071 369.399 69.461 505.931 237.318 559.435 373.85 488.905c61.727-31.888 106.481-83.669 130.476-143.455 26.617-75.332-60.511-165.333-135.743-146.7" mask="url(#9l2459r6qc)"/>
        </g>
        <g opacity=".9" transform="translate(-45 -1) translate(0 .74)">
            <mask id="6ljiwgygwf" fill="#fff">
                <use xlink:href="#0clkzhissd"/>
            </mask>
            <path fill="url(#aawss6ubfe)" d="M236.622 312.041c-82.206-24.535-138.593-51.374-150.529-100.435-19.16-78.763 73.855-162.833 33.006-199.895-54.156-57.233-241.573 120.433-246.897 269.236-5.495 153.575 101.863 282.073 239.791 287.007 62.357 2.232 120.286-21.176 165.554-61.687 54.213-52.808 26.1-173.842-40.925-194.226" mask="url(#6ljiwgygwf)"/>
        </g>
    </g>
</svg>
