<svg xmlns="http://www.w3.org/2000/svg" xmlns:xlink="http://www.w3.org/1999/xlink" width="415" height="291" viewBox="0 0 415 291">
    <defs>
        <path id="prefix__a" d="M0 0.12L457.757 0.12 457.757 225.086 0 225.086z"/>
        <path id="prefix__c" d="M43.145 291.086C13.51 271.603-3.927 248.84 2.163 228.598c9.506-43.03 99.578-1.11 144.742-41.719 28.133-25.295 25.127-76.598 11.067-146.538 4.648-83.022 140.007-23.367 174.3 73.334V248.67c-5.234 16.322-11.226 29.925-14.988 42.416H43.145"/>
        <linearGradient id="prefix__d" x1="109.581%" x2="21.469%" y1="83.972%" y2="29.205%">
            <stop offset="0%" stop-color="#0070BC"/>
            <stop offset="100%" stop-color="#3FCDE2"/>
        </linearGradient>
    </defs>
    <g fill="none" fill-rule="evenodd">
        <g transform="translate(0 -1) translate(0 66)">
            <mask id="prefix__b" fill="#fff">
                <use xlink:href="#prefix__a"/>
            </mask>
            <path fill="#FCBE1D" d="M235.529 70.896c-10.43 69.283-25.677 117.951-63.983 133.219-61.496 24.51-140.126-41.079-165.418-3.806-40.08 50.345 125.039 181.556 245.975 168.826 124.813-13.137 216.43-114.66 204.63-226.757C451.4 91.699 425.84 47.536 387.9 15.569c-48.907-37.793-143.56-1.204-152.37 55.327" mask="url(#prefix__b)"/>
        </g>
        <g opacity=".76" transform="translate(0 -1) translate(137)">
            <mask id="prefix__e" fill="#fff">
                <use xlink:href="#prefix__c"/>
            </mask>
            <path fill="url(#prefix__d)" d="M157.972 40.341c14.06 69.94 17.066 121.243-11.067 146.538-45.164 40.609-135.236-1.311-144.742 41.719-17.974 59.742 168.998 141.455 269.645 95.938 103.874-46.978 93.714 113.455 46.097 8.166-21.528-47.602 45.438-83.397 18.366-205.738C310.444 22.64 162.829-46.422 157.972 40.341" mask="url(#prefix__e)"/>
        </g>
    </g>
</svg>
