<svg xmlns="http://www.w3.org/2000/svg" xmlns:xlink="http://www.w3.org/1999/xlink" width="105" height="470" viewBox="0 0 105 470">
    <defs>
        <path id="hm0fwr08ra" d="M0.747 0.132L122.085 0.132 122.085 454.395 0.747 454.395z"/>
        <path id="pzg023wlmc" d="M0.987 0.097L87.085 0.097 87.085 459.863 0.987 459.863z"/>
    </defs>
    <g fill="none" fill-rule="evenodd">
        <g transform="translate(0 -56) translate(0 .74)">
            <mask id="p7dk6m5m8b" fill="#fff">
                <use xlink:href="#hm0fwr08ra"/>
            </mask>
            <path fill="#EF605A" d="M287.948 285.45c-53.443-45.307-86.819-83.87-79.66-124.48 11.494-65.195 108.632-97.582 90.23-138.696C276.776-38.292 78.339 33.147 25.565 142.702c-54.465 113.07-16.297 244.385 85.252 293.3 45.911 22.115 96.916 23.6 144.059 8.142 57.864-21.723 76.521-121.47 33.072-158.695" mask="url(#p7dk6m5m8b)"/>
        </g>
        <g opacity=".7" transform="translate(0 -56) translate(35 129.74)">
            <mask id="jt0ny0nxed" fill="#fff">
                <use xlink:href="#pzg023wlmc"/>
            </mask>
            <path fill="#40CEE3" d="M333.713 240.638C257.24 227.855 203.942 210.955 189 172.134 165.01 109.811 242.099 33.417 202 6.86 148.155-34.927-6.473 125.718 1.268 247.075c7.989 125.25 115.999 220.307 241.248 212.319 56.626-3.611 107.079-27.669 144.63-64.52 44.609-47.618 8.95-143.506-53.433-154.236" mask="url(#jt0ny0nxed)"/>
        </g>
    </g>
</svg>
