<svg xmlns="http://www.w3.org/2000/svg" xmlns:xlink="http://www.w3.org/1999/xlink" width="503" height="449" viewBox="0 0 503 449">
    <defs>
        <path id="gvmeu4i4sa" d="M0.085 0.719L306.118 0.719 306.118 449.262 0.085 449.262z"/>
        <path id="lz2zoj5pkc" d="M502.628 281.262H.085V117.385C25.704 44.764 67.362-8.39 105.949 1.332c58.024 10.07 9.129 133.637 66.669 191.736 35.842 36.19 103.922 28.94 195.964 5.682 54.111-13.402 114.377 29.395 134.046 82.512"/>
    </defs>
    <g fill="none" fill-rule="evenodd">
        <g opacity=".76" transform="translate(0 -1) translate(0 .74)">
            <mask id="b0enunht0b" fill="#fff">
                <use xlink:href="#gvmeu4i4sa"/>
            </mask>
            <path fill="#6E7D89" fill-opacity=".675" d="M236.622 312.041c-82.206-24.535-138.593-51.374-150.528-100.436-19.16-78.762 73.854-162.833 33.005-199.894-54.156-57.233-241.573 120.433-246.897 269.235-5.495 153.575 101.863 282.074 239.79 287.008 62.358 2.232 120.287-21.177 165.555-61.687 54.214-52.808 26.1-173.842-40.925-194.226" mask="url(#b0enunht0b)"/>
        </g>
        <g opacity=".76" transform="translate(0 -1) translate(0 168.74)">
            <mask id="bp419327od" fill="#fff">
                <use xlink:href="#lz2zoj5pkc"/>
            </mask>
            <path fill="#F7E01A" d="M368.582 198.75c-92.042 23.258-160.122 30.508-195.964-5.682-57.54-58.099-8.645-181.666-66.669-191.736C25.022-19.059-69.41 237.11-1.07 369.399c70.531 136.532 238.388 190.036 374.92 119.506 61.727-31.888 106.481-83.669 130.476-143.455 26.617-75.332-60.511-165.333-135.744-146.7" mask="url(#bp419327od)"/>
        </g>
    </g>
</svg>
