<svg xmlns="http://www.w3.org/2000/svg" xmlns:xlink="http://www.w3.org/1999/xlink" width="404" height="285" viewBox="0 0 404 285">
    <defs>
        <path id="hilzfdh5pa" d="M0.272 0.086L322.757 0.086 322.757 285 0.272 285z"/>
        <path id="zs8ecwhb2c" d="M403.227.086c-8.713 59.18-40.634 114.848-93.258 152.216-95.212 67.61-299.982 26.92-309.697-36.433v-10.512c5.12-44.636 107.566-21.103 147.227-73.318 6.903-9.088 10.884-19.763 12.422-31.953h243.306"/>
        <linearGradient id="vxlf0c8wsd" x1="28.415%" x2="96.958%" y1="50%" y2="50%">
            <stop offset="0%" stop-color="#EF6059"/>
            <stop offset="100%" stop-color="#68C4FB"/>
        </linearGradient>
    </defs>
    <g fill="none" fill-rule="evenodd">
        <g>
            <g>
                <g transform="translate(-483 -2579) translate(483 2579)">
                    <mask id="1s9t6z8brb" fill="#fff">
                        <use xlink:href="#hilzfdh5pa"/>
                    </mask>
                    <path fill="#FBE78F" d="M100.528-14.104C90.1 55.179 74.851 103.847 36.545 119.115c-61.496 24.51-140.125-41.079-165.418-3.806-40.08 50.345 125.04 181.556 245.975 168.826 124.814-13.137 216.43-114.66 204.632-226.757C316.4 6.699 290.84-37.464 252.9-69.431c-48.908-37.793-143.56-1.204-152.37 55.327" mask="url(#1s9t6z8brb)" opacity=".825"/>
                </g>
                <g opacity=".7" transform="translate(-483 -2579) translate(483 2579)">
                    <mask id="69bfsiu29e" fill="#fff">
                        <use xlink:href="#zs8ecwhb2c"/>
                    </mask>
                    <path fill="url(#vxlf0c8wsd)" d="M129.661-127.073c29.344 71.766 43 125.987 17.838 159.112C107.106 85.218 1.589 59.827.089 107.899c-7.225 67.773 210.731 114.808 309.88 44.403 102.328-72.663 126.378-214.521 53.715-316.85-32.852-46.264-79.847-76.526-130.938-89.084-63.962-12.901-126.765 67.857-103.085 126.559" mask="url(#69bfsiu29e)"/>
                </g>
            </g>
        </g>
    </g>
</svg>
