<svg xmlns="http://www.w3.org/2000/svg" xmlns:xlink="http://www.w3.org/1999/xlink" width="354" height="285" viewBox="0 0 354 285">
    <defs>
        <path id="prefix__a" d="M0.272 0.086L322.757 0.086 322.757 285 0.272 285z"/>
        <path id="prefix__c" d="M403.227.086c-8.712 59.18-40.634 114.848-93.258 152.216-95.212 67.61-299.982 26.92-309.697-36.433v-10.512c5.12-44.636 107.566-21.103 147.227-73.318 6.903-9.088 10.884-19.763 12.422-31.953h243.306"/>
        <linearGradient id="prefix__d" x1="95.932%" x2="17.46%" y1="69.443%" y2="40.825%">
            <stop offset="0%" stop-color="#0070BC"/>
            <stop offset="100%" stop-color="#3FCDE2"/>
        </linearGradient>
    </defs>
    <g fill="none" fill-rule="evenodd" transform="translate(-50 .01)">
        <mask id="prefix__b" fill="#fff">
            <use xlink:href="#prefix__a"/>
        </mask>
        <path fill="#1E2C64" d="M100.528-14.104C90.1 55.179 74.851 103.847 36.545 119.115c-61.495 24.51-140.126-41.079-165.418-3.806-40.08 50.345 125.04 181.556 245.976 168.826 124.813-13.137 216.43-114.66 204.63-226.757C316.4 6.699 290.84-37.464 252.9-69.431c-48.907-37.793-143.56-1.204-152.37 55.327" mask="url(#prefix__b)" opacity=".76"/>
        <g>
            <mask id="prefix__e" fill="#fff">
                <use xlink:href="#prefix__c"/>
            </mask>
            <path fill="url(#prefix__d)" fill-opacity=".76" d="M129.661-127.073c29.344 71.766 43 125.987 17.838 159.112C107.106 85.218 1.589 59.827.089 107.899c-7.225 67.773 210.731 114.808 309.88 44.403 102.329-72.663 126.378-214.521 53.715-316.85-32.852-46.264-79.847-76.526-130.938-89.084-63.962-12.901-126.765 67.857-103.085 126.559" mask="url(#prefix__e)"/>
        </g>
    </g>
</svg>
