<svg width="503" height="451" viewBox="0 0 503 451" fill="none" xmlns="http://www.w3.org/2000/svg">
<mask id="mask0" mask-type="alpha" maskUnits="userSpaceOnUse" x="0" y="1" width="307" height="450">
<path fill-rule="evenodd" clip-rule="evenodd" d="M0.0859375 1.45898H306.119V450.002H0.0859375V1.45898Z" fill="white"/>
</mask>
<g mask="url(#mask0)">
<path fill-rule="evenodd" clip-rule="evenodd" d="M236.624 312.781C154.418 288.246 98.0308 261.407 86.0948 212.345C66.9348 133.583 159.95 49.5124 119.101 12.4514C64.9438 -44.7816 -122.472 132.884 -127.796 281.686C-133.291 435.261 -25.9342 563.76 111.994 568.694C174.352 570.926 232.281 547.517 277.549 507.007C331.763 454.199 303.649 333.165 236.624 312.781Z" fill="#34668F"/>
</g>
<mask id="mask1" mask-type="alpha" maskUnits="userSpaceOnUse" x="0" y="168" width="503" height="283">
<path fill-rule="evenodd" clip-rule="evenodd" d="M502.629 450.002H0.0859375V286.127C25.7046 213.505 67.3627 160.349 105.95 170.072C163.974 180.142 115.079 303.709 172.619 361.808C208.461 397.998 276.541 390.748 368.583 367.49C422.694 354.089 482.959 396.886 502.629 450.002" fill="white"/>
</mask>
<g mask="url(#mask1)">
<path fill-rule="evenodd" clip-rule="evenodd" d="M368.583 367.49C276.541 390.748 208.461 397.998 172.619 361.808C115.079 303.709 163.974 180.142 105.95 170.072C25.0243 149.681 -69.4086 405.85 -1.06864 538.139C69.4624 674.671 237.319 728.175 373.851 657.645C435.578 625.757 480.332 573.976 504.327 514.19C530.944 438.858 443.816 348.857 368.583 367.49Z" fill="#F7BD30"/>
</g>
</svg>
