<svg xmlns="http://www.w3.org/2000/svg" xmlns:xlink="http://www.w3.org/1999/xlink" width="474" height="293" viewBox="0 0 474 293">
    <defs>
        <path id="3ibrxs87sa" d="M0.272 0.12L453.757 0.12 453.757 227.085 0.272 227.085z"/>
        <path id="03hdf8yrwc" d="M44.68 292.085c-30.565-19.7-48.711-42.898-42.517-63.487 9.506-43.03 99.579-1.11 144.742-41.719 28.133-25.295 25.127-76.598 11.067-146.538 4.857-86.763 152.472-17.701 178.299 86.623 1.682 7.602 3.001 14.87 4.001 21.826v66.961c-5.267 32.939-17.347 56.057-23.285 76.334H44.68"/>
    </defs>
    <g fill="none" fill-rule="evenodd">
        <g>
            <g>
                <g transform="translate(-1062 -2722) translate(1062 2722) translate(0 65)">
                    <mask id="p3iu3b0iub" fill="#fff">
                        <use xlink:href="#3ibrxs87sa"/>
                    </mask>
                    <path fill="#E15E5F" d="M231.529 70.896c-10.43 69.283-25.677 117.951-63.983 133.219-61.496 24.51-140.126-41.079-165.418-3.806-40.08 50.345 125.039 181.556 245.974 168.826 124.815-13.137 216.43-114.66 204.632-226.757-5.335-50.679-30.894-94.842-68.835-126.809-48.907-37.793-143.56-1.204-152.37 55.327" mask="url(#p3iu3b0iub)" opacity=".821"/>
                </g>
                <g opacity=".807" transform="translate(-1062 -2722) translate(1062 2722) translate(133)">
                    <mask id="j3xdsyjggd" fill="#fff">
                        <use xlink:href="#03hdf8yrwc"/>
                    </mask>
                    <path fill="#FBFCD9" d="M157.972 40.341c14.06 69.94 17.066 121.243-11.067 146.538-45.163 40.609-135.236-1.311-144.742 41.719-17.974 59.742 168.999 141.455 269.645 95.938 103.874-46.978 93.714 113.455 46.097 8.166-21.528-47.602 45.438-83.397 18.366-205.738C310.444 22.64 162.829-46.422 157.972 40.341" mask="url(#j3xdsyjggd)"/>
                </g>
            </g>
        </g>
    </g>
</svg>
