<svg xmlns="http://www.w3.org/2000/svg" xmlns:xlink="http://www.w3.org/1999/xlink" width="123" height="496" viewBox="0 0 123 496">
    <defs>
        <path id="gtzcavt4aa" d="M0.747 0.132L122.085 0.132 122.085 454.395 0.747 454.395z"/>
        <path id="iu9v1xm64c" d="M87.085 354.85c-48.737-38.57-81.55-96.863-85.817-163.774C-2.848 126.544 38.946 50.904 87.085.499V354.85"/>
    </defs>
    <g fill="none" fill-rule="evenodd">
        <g opacity=".76" transform="translate(0 -45) translate(0 .74)">
            <mask id="y8t32wru8b" fill="#fff">
                <use xlink:href="#gtzcavt4aa"/>
            </mask>
            <path fill="#6E7D89" fill-opacity=".7" d="M287.948 285.45c-53.443-45.307-86.82-83.87-79.66-124.48 11.493-65.195 108.632-97.582 90.23-138.696C276.776-38.292 78.339 33.147 25.566 142.702c-54.466 113.07-16.298 244.385 85.251 293.3 45.911 22.115 96.916 23.6 144.058 8.142 57.865-21.723 76.523-121.47 33.073-158.695" mask="url(#y8t32wru8b)"/>
        </g>
        <g opacity=".756" transform="translate(0 -45) translate(35 185.74)">
            <mask id="6r3m026u1d" fill="#fff">
                <use xlink:href="#iu9v1xm64c"/>
            </mask>
            <path fill="#F7E01A" d="M333.713 184.638c-76.472-12.783-129.771-29.683-144.714-68.504C165.011 53.811 242.099-22.583 202-49.14 148.155-90.927-6.473 69.718 1.268 191.076c7.988 125.249 115.998 220.306 241.247 212.318 56.626-3.611 107.079-27.669 144.63-64.52 44.61-47.618 8.95-143.506-53.432-154.236" mask="url(#6r3m026u1d)"/>
        </g>
    </g>
</svg>
