<svg xmlns="http://www.w3.org/2000/svg" xmlns:xlink="http://www.w3.org/1999/xlink" width="219" height="222" viewBox="0 0 219 222">
    <defs>
        <path id="prefix__c" d="M168.634 105.317c0 46.567-37.75 84.317-84.317 84.317C37.75 189.634 0 151.884 0 105.317 0 58.75 37.75 21 84.317 21c46.567 0 84.317 37.75 84.317 84.317"/>
        <path id="prefix__d" d="M0.176 0.055L3.492 0.055 3.492 8.631 0.176 8.631z"/>
        <path id="prefix__f" d="M0.19 0.865L50.699 0.865 50.699 65 0.19 65z"/>
        <linearGradient id="prefix__a" x1="3.409%" x2="96.591%" y1="68.184%" y2="31.817%">
            <stop offset="0%" stop-color="#0070BC"/>
            <stop offset="100%" stop-color="#3FCDE2"/>
        </linearGradient>
        <filter id="prefix__b" width="127.9%" height="127.9%" x="-9.2%" y="-9.2%" filterUnits="objectBoundingBox">
            <feOffset dx="8" dy="8" in="SourceAlpha" result="shadowOffsetOuter1"/>
            <feGaussianBlur in="shadowOffsetOuter1" result="shadowBlurOuter1" stdDeviation="6.5"/>
            <feColorMatrix in="shadowBlurOuter1" values="0 0 0 0 0 0 0 0 0 0 0 0 0 0 0 0 0 0 0.25 0"/>
        </filter>
    </defs>
    <g fill="none" fill-rule="evenodd" transform="translate(5)">
        <path fill="#FCBE1D" d="M214 86c0 47.497-38.503 86-86 86s-86-38.503-86-86c0-47.496 38.503-86 86-86s86 38.504 86 86"/>
        <path fill="url(#prefix__a)" d="M155.278 201.48C139.333 214.316 119.064 222 97 222c-51.363 0-93-41.637-93-93 0-51.362 41.637-93 93-93 51.362 0 93 41.638 93 93 0 29.299-13.548 55.433-34.722 72.48z" style="mix-blend-mode:difference"/>
        <use fill="#000" filter="url(#prefix__b)" xlink:href="#prefix__c"/>
        <use fill="#F9F9F9" xlink:href="#prefix__c"/>
        <path stroke="#D0DCE2" stroke-linecap="round" stroke-linejoin="round" stroke-width="3.115" d="M63.166 199.31c50.434 14.461 103.043-14.7 117.505-65.135 14.462-50.435-14.7-103.044-65.134-117.506"/>
        <path fill="#D0DCE2" d="M111 201c0 4.418-3.582 8-8 8s-8-3.582-8-8 3.582-8 8-8 8 3.582 8 8"/>
        <g>
            <path fill="#9DA6AA" d="M80.802 56.119c-.25.222-.514.505-.839.766-.328.267-.657.466-.941.596l-.895.453c-.305.132-.624.236-.936.355-1.263.439-2.597.697-3.938.719-1.34.044-2.68-.111-3.984-.407-1.308-.308-2.56-.724-3.799-1.345l.383.046c-4.23 1.193-8.488 2.234-12.763 3.233-4.277.989-8.573 1.91-12.916 2.58-4.341.68-8.7 1.246-13.09 1.609-2.197.166-4.405.258-6.628.132-1.11-.058-2.226-.198-3.334-.453-1.12-.245-2.185-.755-3.15-1.355-1.91-1.26-3.466-2.934-4.764-4.747-1.304-1.817-2.393-3.77-3.322-5.787-1.84-4.043-3.06-8.371-3.504-12.782-.435-4.396-.47-8.88.59-13.218.535-2.16 1.368-4.272 2.602-6.165 1.247-1.923 3.02-3.418 4.905-4.613 1.895-1.201 3.934-2.12 6.009-2.904 2.078-.775 4.2-1.421 6.355-1.92 4.302-1.003 8.68-1.69 13.09-1.971 2.205-.136 4.416-.184 6.626-.08 2.209.072 4.413.285 6.599.622 2.185.336 4.356.775 6.489 1.38 2.116.64 4.238 1.4 6.093 2.706 1.91 1.293 3.14 3.297 4.056 5.307.891 2.045 1.504 4.19 1.928 6.357.855 4.339 1.157 8.746 1.305 13.134.082 2.195.068 4.39.082 6.579l.036 3.277c.04 1.08.054 2.195.255 3.195.213.954.936 1.706 1.828 2.245.888.54 1.891.937 2.927 1.224 1.035.295 2.094.524 3.166.695.537.082 1.075.155 1.615.216l.81.078.405.032.203.013.132.01c.124.004.27.114.314.188m-.507.157c-.023.072.053.179.11.18.025.006-.053 0-.075 0l-.207-.008-.415-.021-.826-.058c-.55-.046-1.1-.106-1.648-.175-1.096-.147-2.188-.347-3.265-.632-1.078-.285-2.14-.683-3.127-1.267-.974-.567-1.915-1.484-2.2-2.702-.24-1.15-.255-2.24-.311-3.344l-.076-3.294-.13-6.562c-.115-4.363-.385-8.733-1.194-13.003-.403-2.132-.977-4.233-1.817-6.213-.857-1.956-2.034-3.837-3.794-5.012-1.745-1.207-3.795-2.001-5.885-2.542-2.093-.56-4.247-.884-6.407-1.092-4.323-.402-8.68-.398-13.014-.176-4.336.213-8.677.703-12.905 1.694-4.213.99-8.389 2.364-12.053 4.604-1.8 1.144-3.503 2.486-4.681 4.237-1.202 1.753-2.05 3.752-2.61 5.829-1.109 4.17-1.14 8.617-.425 12.884.745 4.266 1.897 8.466 3.63 12.423.868 1.976 1.891 3.885 3.122 5.644 1.22 1.76 2.681 3.365 4.421 4.546.885.56 1.812 1.03 2.838 1.266 1.024.24 2.088.384 3.165.447 2.152.134 4.33.057 6.502-.094 4.348-.303 8.666-1.04 12.953-1.868 4.289-.845 8.575-1.702 12.849-2.631 4.272-.932 8.529-1.957 12.765-3.02.135-.033.27-.013.384.047 1.076.573 2.3 1.023 3.519 1.336 1.228.316 2.492.473 3.755.487 1.264.029 2.529-.17 3.737-.54.298-.101.605-.187.9-.301l.864-.4c.317-.128.534-.283.748-.376.222-.093.505-.161.803-.293" transform="translate(14 66)"/>
            <g transform="translate(14 66) translate(58 .945)">
                <mask id="prefix__e" fill="#fff">
                    <use xlink:href="#prefix__d"/>
                </mask>
                <path fill="#9DA6AA" d="M.179 8.203c.176-1.408.55-2.753.982-4.078.446-1.321.939-2.627 1.617-3.872.1-.184.33-.253.516-.152.14.077.215.234.195.385-.19 1.405-.562 2.748-.983 4.078-.434 1.324-.926 2.63-1.617 3.87-.102.184-.334.25-.517.15-.14-.079-.212-.232-.193-.381" mask="url(#prefix__e)"/>
            </g>
            <path fill="#9DA6AA" d="M61.733 10.443c.484-1.29 1.145-2.47 1.857-3.616.724-1.14 1.491-2.253 2.423-3.263.143-.155.384-.165.538-.022.118.109.151.275.097.417-.495 1.282-1.154 2.463-1.857 3.616-.714 1.145-1.48 2.259-2.423 3.263-.145.153-.386.16-.539.017-.116-.11-.148-.272-.096-.412M64.877 12.486c.776-.951 1.681-1.74 2.623-2.48.95-.728 1.932-1.416 3.034-1.953.19-.092.418-.013.511.176.068.14.043.3-.05.412-.784.942-1.688 1.73-2.622 2.48-.944.738-1.925 1.427-3.035 1.954-.19.09-.419.009-.51-.183-.066-.137-.04-.295.05-.406M10.17 17.001c-2.003 1-3.695 2.65-5.046 4.451-1.353 1.823-2.354 3.903-3.013 6.083-.673 2.18-1.034 4.446-1.225 6.732-.17 2.28-.057 4.598.15 6.894.243 2.295.577 4.587 1.141 6.824.586 2.233 1.324 4.416 2.155 6.541.816 2.13 1.713 4.23 2.911 6.152.59.964 1.265 1.875 2.036 2.688.753.832 1.6 1.571 2.53 2.178.915.628 1.927 1.105 2.987 1.417.52.188 1.084.25 1.64.345.556.083 1.106.21 1.672.26 1.144.036 2.285.154 3.437.124 1.151-.04 2.305-.043 3.456-.152 1.151-.107 2.3-.239 3.443-.414 1.14-.209 2.273-.45 3.414-.632 2.273-.433 4.567-.739 6.845-1.17 4.561-.813 9.097-1.79 13.603-2.894 2.25-.568 4.474-1.23 6.697-1.894 2.221-.66 4.47-1.246 6.696-1.865h.006c.108-.03.22-.03.321-.005 1.216.308 2.52.503 3.796.611 1.284.1 2.578.144 3.85-.006 1.267-.145 2.524-.418 3.681-.934 1.15-.527 2.164-1.307 2.98-2.292l.01-.012c.092-.112.26-.128.372-.035.106.088.125.242.05.355-.778 1.13-1.848 2.05-3.063 2.701-1.22.651-2.568.974-3.907 1.193-1.345.207-2.706.243-4.053.162-1.353-.088-2.673-.252-4.024-.562l.327-.005c-2.23.687-4.464 1.325-6.729 1.868l-6.799 1.572c-4.512 1.132-9.042 2.193-13.6 3.145-2.277.49-4.568.932-6.88 1.235-1.159.142-2.326.223-3.486.337-1.166.073-2.328.166-3.487.295-1.162.107-2.333.14-3.499.234-1.169.075-2.35.004-3.528.012-.59-.028-1.184-.137-1.777-.202-.594-.073-1.189-.137-1.77-.335-1.17-.33-2.29-.844-3.299-1.515-2.056-1.305-3.65-3.172-4.99-5.13-1.339-1.974-2.409-4.114-3.19-6.343-.787-2.23-1.27-4.54-1.673-6.846C.916 45.865.55 43.558.32 41.233c-.232-2.324-.4-4.66-.277-7.018.126-2.349.517-4.689 1.198-6.955.722-2.25 1.777-4.42 3.246-6.29 1.474-1.86 3.263-3.493 5.49-4.462.132-.058.288.003.346.138.057.128.001.28-.123.341l-.029.014z" transform="translate(14 66)"/>
            <path stroke="#9DA6AA" stroke-linecap="round" stroke-linejoin="round" stroke-width=".945" d="M2.734 30.209L.747 31.814M2.428 34.03l-1.91 1.453M2.81 40.145L.825 41.521M3.346 42.897l-2.14 1.605M3.957 45.497l-1.91 1.91M.747 38.54l1.834-1.376M1.435 28.832l1.758-1.376M4.798 48.4l-2.37 2.446M5.945 51.382l-2.446 2.675M7.321 54.363L5.18 57.65M8.773 56.732l-1.911 4.052M10.454 59.178l-1.682 4.205M12.9 61.778l-1.451 4.128M15.5 63.306l-1.07 4.204M18.863 64.376l-1.223 3.745M22.302 64.758L22.302 64.758 21.308 68.121M25.895 64.453L24.75 67.97M29.794 64.147l-1.223 3.21M33.463 63.764l-1.146 3.211M36.596 63.306l-.764 3.21M39.807 62.695l-.765 3.134M43.017 62.084l-.917 3.285M45.922 61.624l-.802 2.982M49.705 60.708l-.573 2.98M53.718 59.79l-.802 2.98M57.426 58.949l-.841 2.676M61.515 57.956l-.765 2.752M65.72 56.81l-.689 2.712M69.274 58.07l-.497 1.644" transform="translate(14 66)"/>
            <path fill="#9DA6AA" d="M15.962 56.905c-.17-.27-.459-.512-.698-.72-.065-.056-.157-.1-.247-.092-.08-.011-.155.026-.2.09-.06.059-.095.147-.094.227.004.514.121 1.04.65 1.26.432.18.817-.407.59-.765M19.033 58.118c-.252-.21-.587-.34-.898-.438-.377-.12-.52.383-.248.588.249.19.438.438.743.542.382.13.722-.427.403-.692M17.226 59.635c-.327-.056-.624.328-.345.593.126.12.261.227.387.346.158.151.23.35.477.387.24.037.482-.057.55-.312.162-.61-.59-.932-1.069-1.014M22.12 60.328c-.29-.227-.65-.291-1.013-.281-.166.005-.313.203-.204.356.176.247.386.503.638.676.446.304 1.009-.418.58-.751M46.101 36.066c.5 1.286-.137 2.735-1.424 3.235s-2.736-.136-3.236-1.423c-.5-1.288.137-2.736 1.424-3.237 1.287-.5 2.736.138 3.236 1.425M39.26 37.474c.5 1.286-.136 2.735-1.423 3.235-1.287.501-2.736-.136-3.236-1.423-.5-1.288.138-2.736 1.424-3.237 1.287-.5 2.736.138 3.236 1.425M32.405 38.885c.5 1.287-.137 2.735-1.424 3.236-1.287.5-2.736-.137-3.236-1.424-.501-1.287.137-2.736 1.424-3.236s2.736.137 3.236 1.424M105.549 39.993c.004 1.38-1.11 2.504-2.492 2.509-1.38.004-2.504-1.112-2.508-2.491-.006-1.381 1.11-2.504 2.49-2.51 1.382-.004 2.504 1.11 2.51 2.492M115.549 39.958c.004 1.38-1.11 2.504-2.492 2.509-1.38.005-2.504-1.111-2.508-2.492-.006-1.38 1.11-2.504 2.49-2.508 1.382-.005 2.504 1.11 2.51 2.49M124.549 39.926c.004 1.38-1.11 2.504-2.492 2.508-1.38.005-2.504-1.11-2.508-2.49-.006-1.38 1.11-2.505 2.49-2.509 1.382-.005 2.504 1.11 2.51 2.491" transform="translate(14 66)"/>
            <g transform="translate(14 66) translate(87 14.945)">
                <mask id="prefix__g" fill="#fff">
                    <use xlink:href="#prefix__f"/>
                </mask>
                <path fill="#9DA6AA" d="M19.87 49.748c-.163.05-.29.104-.415.122-.096.024-.354-.008-.534-.012-.397-.008-.785-.076-1.178-.12-.775-.138-1.544-.315-2.288-.567-1.491-.498-2.892-1.22-4.217-2.046-2.638-1.679-4.927-3.877-6.755-6.402C2.666 38.194 1.255 35.33.617 32.25.3 30.714.129 29.14.21 27.57c.076-1.562.26-3.1.536-4.632.28-1.527.66-3.037 1.15-4.509.425-1.493.953-2.965 1.614-4.383C4.819 11.21 6.708 8.58 9.14 6.56c2.439-2.015 5.315-3.433 8.302-4.306C20.446 1.42 23.518.915 26.655.867c3.145-.057 6.272.758 9.106 2.08 2.837 1.327 5.45 3.113 7.703 5.291 2.29 2.128 4.283 4.688 5.497 7.634 1.219 2.932 1.819 6.118 1.73 9.273-.06 3.161-.774 6.266-1.947 9.152-1.23 2.843-2.54 5.754-4.705 8.06-2.118 2.318-4.64 4.204-7.303 5.823-2.681 1.61-5.552 2.882-8.69 3.532l.342-.184-6.115 6.257c-2.056 2.071-4.096 4.146-6.245 6.151-.274.25-.543.496-.848.741-.078.061-.16.124-.261.191l-.101.06c-.008.005-.06.027-.096.04l-.06.017s-.073.022-.177.012c-.426-.048-.465-.486-.455-.472-.01-.104 0-.113 0-.164.037-.27.092-.426.145-.619.219-.723.47-1.405.722-2.095.51-1.37 1.037-2.73 1.58-4.086l1.667-4.043.845-2.018.425-1.007.213-.504.106-.252.054-.125.026-.063.014-.03.007-.017c.019-.076-.063.152.037.246m.447-.317c.095.104.009.343.025.277l-.007.017-.012.031-.024.063-.05.128-.098.255-.196.51-.391 1.02-.776 2.041-1.53 4.091-1.504 4.093c-.238.683-.48 1.372-.673 2.047-.044.158-.093.352-.103.444 0-.006 0 .03-.002-.028.014.052-.02-.313-.39-.372-.217.006-.12.01-.171.014-.015.004-.045.021-.034.014l.017-.01.177-.136c.26-.215.525-.464.785-.709 2.083-2.003 4.1-4.115 6.117-6.209l6.01-6.338c.092-.096.207-.156.327-.18l.017-.004c1.428-.285 2.896-.752 4.31-1.256 1.42-.512 2.817-1.114 4.152-1.833 2.684-1.42 5.063-3.388 7.02-5.684 1.943-2.284 3.786-4.774 4.747-7.677.954-2.88 1.51-5.893 1.43-8.895-.126-6.025-2.678-11.75-6.685-16.25-2.08-2.195-4.644-3.919-7.42-5.106-1.386-.604-2.841-1.02-4.302-1.372-1.464-.347-2.951-.603-4.46-.715-3.014-.278-6.11.203-8.974 1.2-2.874.982-5.53 2.531-7.76 4.532-2.246 1.98-4.143 4.351-5.608 7.002-.73 1.326-1.352 2.72-1.856 4.16-.436 1.46-.763 2.952-.992 4.458-.446 3.017-.647 6.077-.042 9.035.597 2.954 1.845 5.79 3.64 8.235 1.79 2.445 4.033 4.573 6.597 6.185 1.277.81 2.629 1.511 4.053 2.004.706.264 1.434.456 2.168.611.37.054.74.131 1.113.15.203.016.328.036.617.043.26.015.518.067.738.114" mask="url(#prefix__g)"/>
            </g>
            <path fill="#9DA6AA" d="M94.739 23.694c-1.756 1.448-3.366 3.13-4.679 5.005-1.331 1.858-2.496 3.85-3.312 5.996-.813 2.138-1.313 4.425-1.287 6.719.009 2.275-.021 4.549.428 6.788.453 2.23 1.293 4.365 2.348 6.389.533 1.012 1.159 1.976 1.86 2.883.363.445.756.865 1.158 1.272.427.385.857.76 1.27 1.154 1.676 1.545 3.444 2.988 5.493 4.022 2.017 1.029 4.239 1.853 6.472 2.03.232.018.405.22.387.453-.003.03-.008.06-.017.087l-.009.03c-.333 1.099-.689 2.188-1.087 3.262l-1.195 3.22-1.194 3.214c-.093.269-.197.539-.24.752-.041.274-.077.548-.085.82-.029.517.034 1.155.266 1.464l.047.062c.067.09.049.217-.04.283-.081.06-.191.053-.262-.014-.31-.296-.373-.581-.467-.886-.077-.301-.111-.604-.127-.903-.019-.301-.009-.6.006-.896.039-.353.142-.624.215-.902.33-1.107.659-2.205 1.029-3.292l1.096-3.261c.373-1.085.789-2.153 1.234-3.212l.36.57c-2.368-.46-4.602-1.155-6.733-2.195-1.065-.508-2.094-1.098-3.066-1.776-.988-.657-1.899-1.424-2.733-2.258-.406-.431-.778-.892-1.157-1.342-.344-.481-.723-.93-1.085-1.392-.713-.933-1.415-1.877-2.027-2.886-1.249-2.005-2.096-4.252-2.621-6.558-.534-2.298-.838-4.708-.454-7.057.407-2.332.868-4.631 1.662-6.85 1.542-4.446 4.486-8.393 8.309-11.14.093-.066.223-.045.291.049.064.09.047.213-.036.28l-.018.016z" transform="translate(14 66)"/>
            <path stroke="#9DA6AA" stroke-linecap="round" stroke-linejoin="round" stroke-width=".744" d="M90.403 29.822L87.75 31.9M89.32 32.727l-2.754 1.939M88.438 35.744l-2.748 1.822M87.744 39.776l-2.747 1.822M87.681 43.745l-2.747 1.822M87.904 46.75l-2.138 1.413M88.534 49.46l-2.138 1.411M89.606 52.168l-2.138 1.412M91.18 54.877l-2.138 1.412M93.007 57.271l-2.139 1.413M95.15 59.54l-2.139 1.412M97.669 61.303l-2.138 1.412M99.792 62.785l-1.911 1.284M102.96 64.064l-1.82 1.37M106.84 64.61l-2.21 1.539M105.642 67.634l-2.209 1.54M104.257 71.225l-2.21 1.54M103.311 74.438l-2.21 1.539" transform="translate(14 66)"/>
            <path fill="#9DA6AA" d="M111.526 13.144c2-.44 4.038-.339 5.98.162 1.943.461 3.87 1.021 5.676 1.873 1.817.845 3.427 2.012 5.115 3.058 1.75.999 3.09 2.559 4.223 4.18.111.159.072.377-.086.488-.137.095-.319.079-.437-.03l-.02-.018c-1.429-1.318-2.774-2.631-4.217-3.904-.679-.696-1.54-1.148-2.357-1.65-.876-.403-1.739-.819-2.645-1.137-1.778-.69-3.607-1.294-5.503-1.554-1.894-.226-3.773-.491-5.676-.772l-.029-.004c-.192-.028-.326-.207-.297-.399.022-.148.134-.262.273-.293M124.583 56.354c-.146-.249-.491-.325-.736-.182-.197.116-.236.23-.351.362-.07.08-.151.152-.227.226-.04.027-.07.062-.091.104-.05.112-.055.128-.015.045-.05.113-.065.221 0 .335.194.341.607.237.892.095.359-.179.787-.543.528-.985M126.329 56.291c-.144.232-.415.382-.618.555-.097.083-.126.237-.094.355.027.102.083.16.168.218.104.07.267.068.369 0 .31-.197.625-.535.695-.908.057-.312-.343-.505-.52-.22M124.11 58.45c-.024-.071-.085-.122-.163-.123-.21-.002-.397.14-.614.14-.248-.001-.536.01-.687.209-.003 0-.005.002-.008.003-.12.05-.118.203-.056.297.079.39.66.403.961.263.267-.123.682-.44.567-.788" transform="translate(14 66)"/>
        </g>
    </g>
</svg>
