<svg xmlns="http://www.w3.org/2000/svg" xmlns:xlink="http://www.w3.org/1999/xlink" width="222" height="232" viewBox="0 0 222 232">
    <defs>
        <path id="prefix__c" d="M201.478 106.259c0 46.567-37.75 84.317-84.317 84.317-46.567 0-84.317-37.75-84.317-84.317 0-46.567 37.75-84.317 84.317-84.317 46.567 0 84.317 37.75 84.317 84.317"/>
        <path id="prefix__d" d="M0 0.237L81.726 0.237 81.726 65 0 65z"/>
        <linearGradient id="prefix__a" x1="3.409%" x2="96.591%" y1="68.184%" y2="31.817%">
            <stop offset="0%" stop-color="#0070BC"/>
            <stop offset="100%" stop-color="#3FCDE2"/>
        </linearGradient>
        <filter id="prefix__b" width="127.9%" height="127.9%" x="-9.2%" y="-9.2%" filterUnits="objectBoundingBox">
            <feOffset dx="8" dy="8" in="SourceAlpha" result="shadowOffsetOuter1"/>
            <feGaussianBlur in="shadowOffsetOuter1" result="shadowBlurOuter1" stdDeviation="6.5"/>
            <feColorMatrix in="shadowBlurOuter1" values="0 0 0 0 0 0 0 0 0 0 0 0 0 0 0 0 0 0 0.25 0"/>
        </filter>
    </defs>
    <g fill="none" fill-rule="evenodd">
        <path fill="#FCBE1D" d="M172.844 86.941c0 47.497-38.503 86-86 86s-86-38.503-86-86c0-47.496 38.503-86 86-86s86 38.504 86 86"/>
        <path fill="url(#prefix__a)" d="M194.844 138.941c0 51.363-41.638 93-93 93-51.363 0-93-41.637-93-93 0-51.362 41.637-93 93-93 51.362 0 93 41.638 93 93" style="mix-blend-mode:difference"/>
        <use fill="#000" filter="url(#prefix__b)" xlink:href="#prefix__c"/>
        <use fill="#F9F9F9" xlink:href="#prefix__c"/>
        <path stroke="#D0DCE2" stroke-linecap="round" stroke-linejoin="round" stroke-width="3.115" d="M212.16 112.441c0 52.467-42.532 95-95 95-52.466 0-95-42.533-95-95"/>
        <path fill="#D0DCE2" d="M38.344 149.441c0 4.418-3.582 8-8 8s-8-3.582-8-8 3.582-8 8-8 8 3.582 8 8"/>
        <g>
            <g transform="translate(78 74) translate(0 .763)">
                <mask id="prefix__e" fill="#fff">
                    <use xlink:href="#prefix__d"/>
                </mask>
                <path fill="#9DA6AA" d="M79.045 48.865c-.105 3.392-.022 6.83-.298 10.217-.2 2.456-1.206 2.346-3.467 2.717-2.33.38-4.681.673-7.044.726-8.684.194-17.467-.205-26.17-.188-10.29.02-20.576-.28-30.86-.591-3.22-.098-8.207.343-8.408-3.805-.113-2.336-.078-4.695-.15-7.034-.152-5.026-.298-10.043.014-15.066.456-7.395.218-14.845.625-22.247 25.19-.75 50.396-.667 75.58.247.028 3.5-.132 7.004-.151 10.503-.043 8.19.585 16.326.329 24.52M7.283 3.44c1.046-.1 2.096-.125 3.144-.194 4.315-.287 8.617-.49 12.944-.523 9.28-.068 18.566.04 27.846.08 3.99.018 7.98.037 11.972.052 4.209.018 8.779-.503 12.943.045 1.954.256 2.043.418 2.392 2.409.323 1.832.209 3.99.289 5.853.012.272.008.545.017.817-25.135-.911-50.287-.993-75.427-.248.1-1.42.222-2.836.389-4.25.316-2.672.815-3.786 3.49-4.041m73.982 27.067c-.13-4.24-.052-8.477.034-12.715.055-2.706.062-5.388-.081-8.092-.114-2.156.266-4.905-.32-6.983C80.31.624 78.697.523 76.766.43 71.753.19 66.69.39 61.673.37 50.473.324 39.275.255 28.076.238c-5.898-.01-11.764.137-17.65.529-2.12.14-5.66-.268-7.39 1.214-1.15.987-1.291 2.552-1.534 3.93C.957 8.994.88 12.218.756 15.34c-.275 6.833-.152 13.67-.573 20.5-.344 5.526-.126 11.039.034 16.567.09 3.097-.901 8.098 1.725 10.426 2.708 2.398 8.44 1.367 11.65 1.464 5.913.176 11.827.344 17.74.438 11.087.174 22.158-.225 33.234.206 4.237.165 8.896-.003 13.079-.722 2.488-.426 3.262-1.915 3.512-4.271 1.032-9.727.405-19.7.107-29.442" mask="url(#prefix__e)"/>
            </g>
            <path fill="#9DA6AA" d="M8.351 8.481c.125-.456.483-1.156 1.03-1.145.504.022.835.251.984.713.247.766-.194.943-.892 1.072-.328.06-.603.056-.914-.08-.324-.146-.305-.207-.208-.56m1.105 2.513c1.517-.18 3.105-1.056 2.843-2.818-.233-1.569-1.3-2.63-2.918-2.699-1.545-.032-2.675 1.486-2.913 2.896-.296 1.751 1.395 2.81 2.988 2.621M16.258 7.81c.127-.563.836-.782 1.338-.756.61.013 1.03.326.942.948-.096.692-.533 1.164-1.268 1.04-.556-.094-1.153-.607-1.012-1.233m.993 3.095c1.724.143 2.945-1.12 3.13-2.766.191-1.704-1.118-2.907-2.785-2.943-1.499-.077-3.116 1.01-3.199 2.593-.086 1.658 1.244 2.983 2.854 3.116M25.45 6.804c1.343-.054 1.548 1.854.206 2.1-.531.095-1.341-.126-1.382-.718-.044-.64.54-1.357 1.176-1.382m.176 3.966c1.529-.094 2.85-1.397 2.852-2.955.002-1.556-1.494-2.932-3.028-2.87-1.669.066-2.914 1.468-3.024 3.111-.118 1.763 1.567 2.815 3.2 2.714M16.944 40.207c1.377 1.718 4.39 2.932 6.124 4.353 1.357 1.113 2.613 2.327 3.875 3.546.508.492 2.07 1.486 2.282 2.196 1.044 3.479-1.758 3.23-3.475 2.666l.49-.363c.402-.297.605-.804.332-1.271-.232-.398-.866-.634-1.272-.334l-1.09.808c-.133.097-.23.22-.31.355-.389-.196-.775-.405-1.158-.631.136-.097.271-.195.42-.283 1.024-.614.09-2.223-.94-1.605-.403.242-.777.529-1.132.836-.46-.313-.918-.635-1.368-.965l.777-.412c1.057-.561.12-2.167-.939-1.606-.49.262-.984.522-1.476.783l-.879-.68c.15-.102.301-.202.464-.292 1.043-.585.107-2.192-.939-1.606-.373.21-.719.46-1.052.73-.422-.32-.88-.665-1.355-1.038.236-.187.483-.354.77-.49.453-.215.57-.865.332-1.271-.27-.465-.816-.55-1.27-.334-.475.224-.899.538-1.283.894-.344-.304-.68-.62-1-.945.297-.197.594-.395.892-.591.993-.658.063-2.27-.938-1.605l-1.169.773c-.43-.602-.767-1.227-.957-1.867h.883c1.196 0 1.198-1.86 0-1.86h-.98c.118-.572.385-1.15.834-1.727.343.365.694.724 1.103 1.018.408.293 1.035.07 1.272-.334.274-.467.076-.98-.333-1.272.15.107-.15-.138-.18-.165-.117-.112-.23-.23-.343-.347l-.193-.204c.312-.257.622-.516.928-.78.36.347.702.71 1.015 1.104.313.392.988.327 1.314 0 .39-.39.314-.921 0-1.315-.288-.363-.603-.7-.933-1.022l1.324-1.2c.35.316.711.622 1.046.954.851.842 2.167-.472 1.315-1.315-.312-.31-.646-.596-.974-.888.507-.451 1.022-.894 1.544-1.33.331.387.688.744 1.03 1.125.801.894 2.112-.424 1.315-1.314-.29-.324-.636-.611-.91-.95.233-.177.464-.358.704-.53.342-.246.675-.504 1.005-.766l.513.702c.296.405.807.605 1.272.334.4-.233.631-.864.333-1.273-.219-.298-.437-.598-.656-.898.417-.313.851-.602 1.302-.866.027.032.05.065.082.097l.825.806c.857.837 2.173-.476 1.315-1.314-.157-.155-.315-.31-.473-.462 1.155-.444 2.147-.442 2.91.982.964 1.802-.047 2.224-1.277 3.476-3.073 3.129-7.003 5.289-10.107 8.323-1.166 1.14-1.644 2.135-.58 3.46M30.521 22.75c-2.584-2.101-6.2-.324-8.502 1.273-4.336 3.009-7.895 6.785-11.993 10.08-6.226 5.447 1.31 11.389 5.63 14.624 2.921 2.188 6.43 5.195 10.001 6.253 2.362.7 6.003-.222 6.174-3.191.168-2.937-4.365-5.871-6.336-7.6-1.207-1.058-2.472-2.055-3.787-2.974-.575-.402-1.168-.778-1.748-1.17-1.272-.86-1.777-.676-.996-1.911 1.966-3.115 17.501-10.551 11.557-15.384M70.255 41.613c-3.146 2.529-5.855 5.455-9.139 7.811-1.436 1.03-2.7 2.275-4.29 3.075-1.686.848-3.117 1.489-4.138-.417-.418-.781-.45-1.298-.269-1.74.45.358.894.724 1.36 1.061.408.294 1.036.07 1.272-.334.275-.469.075-.977-.333-1.271-.376-.272-.738-.563-1.1-.854.113-.108.228-.217.347-.338.272-.277.56-.539.844-.803.378.402.751.808 1.17 1.167.381.328.941.374 1.315 0 .335-.335.382-.986 0-1.314-.388-.333-.736-.705-1.086-1.077.447-.368.901-.729 1.36-1.082.383.491.762.986 1.196 1.433.836.86 2.15-.456 1.315-1.315-.375-.386-.708-.808-1.038-1.231.38-.284.758-.567 1.135-.851.354.331.65.7.967 1.071.326.382.98.336 1.315 0 .378-.378.327-.932 0-1.314-.265-.31-.52-.615-.799-.903.49-.389.966-.793 1.433-1.206.236.174.456.364.662.579.825.871 2.138-.446 1.314-1.314-.19-.202-.398-.389-.613-.563.341-.383.58-.755.698-1.136l1.156.071c.502.031.93-.449.93-.93 0-.529-.427-.898-.93-.929l-1.633-.101c-.009-.013-.014-.023-.024-.035-.234-.293-.529-.567-.845-.835l.894-.421c.454-.214.571-.865.333-1.271-.272-.466-.816-.548-1.272-.334l-1.686.795c-.296-.185-.592-.367-.892-.546.252-.122.504-.244.756-.368.452-.218.573-.862.334-1.271-.27-.461-.819-.554-1.272-.334l-1.528.742c-.047.023-.075.066-.115.097-.295-.199-.579-.401-.83-.607-.113-.092-.217-.195-.329-.289.35-.194.706-.376 1.07-.546.455-.212.57-.867.333-1.272-.273-.466-.815-.546-1.272-.333-.55.257-1.079.55-1.597.862-.358-.328-.71-.663-1.063-.999.205-.126.417-.241.63-.33.464-.193.795-.616.65-1.143-.12-.438-.677-.844-1.144-.65-.552.23-1.037.514-1.513.848-.26-.208-.579-.45-.89-.708.23-.201.471-.378.747-.526 1.056-.564.118-2.169-.938-1.605-.328.175-.63.396-.918.635-.823-3.332 2.236-2.856 3.85-2.247 3.328 1.256 6.545 3.977 9.343 6.106 3.226 2.453 9.761 6.971 4.767 11.34m-4.314-13.31c-2.922-2.188-6.43-5.195-10.002-6.253-2.362-.7-6.003.222-6.174 3.191-.169 2.937 4.365 5.871 6.336 7.6 1.207 1.058 2.472 2.055 3.787 2.974.574.402 1.168.777 1.748 1.17 1.271.859 1.776.676.996 1.911-1.967 3.115-17.502 10.551-11.558 15.384 2.585 2.101 6.201.324 8.503-1.273 4.336-3.009 7.895-6.785 11.993-10.08 6.226-5.447-1.31-11.389-5.629-14.624M43.145 39.002c-.46 2.028-.958 4.048-1.488 6.059-.672 2.553-1.205 7.676-4.392 7.585-1.749-.051-1.84-.214-1.774-1.341.224.039.447.106.66.179.475.164 1.016-.186 1.144-.65.14-.51-.173-.978-.65-1.143-.34-.116-.683-.18-1.034-.231.034-.334.076-.668.125-1.004.411.078.826.134 1.245.143 1.197.027 1.197-1.832 0-1.86-.327-.007-.637-.05-.95-.113.03-.188.063-.378.091-.563.015-.098.035-.196.05-.293.405.048.806.116 1.206.215 1.162.29 1.657-1.502.495-1.793-.458-.114-.923-.19-1.39-.25.093-.543.175-1.088.276-1.63.532.066 1.053.198 1.556.384.471.175 1.02-.195 1.143-.65.144-.52-.176-.967-.649-1.143-.548-.203-1.11-.32-1.684-.401.082-.402.16-.806.244-1.206l1.27.29c1.164.267 1.662-1.525.494-1.793l-1.397-.32c.076-.391.164-.843.263-1.342l.877.23c1.158.305 1.652-1.488.494-1.793l-.997-.262.152-.704 1.573.336c.49.105 1.005-.146 1.143-.65.128-.463-.156-1.038-.649-1.143l-1.646-.352c.09-.367.183-.736.281-1.104.36.079.724.13 1.08.226 1.157.31 1.651-1.483.494-1.793-.35-.093-.708-.146-1.06-.223.071-.234.146-.466.222-.694.342.05.667.13.992.253.47.177 1.02-.196 1.144-.648.143-.522-.178-.967-.65-1.144-.27-.102-.543-.17-.823-.221.118-.274.24-.532.363-.776.287.13.59.228.902.274.496.074 1-.124 1.144-.65.12-.437-.15-1.068-.65-1.143-.11-.016-.204-.051-.304-.08.351-.334.72-.518 1.105-.507 4.427.118.443 13.309-.04 15.439m.04-17.3c-2.725-.075-3.523 2.345-4.276 4.618-1.675 5.058-2.966 10.258-3.94 15.494-.51 2.74-3.934 14.49 2.311 13.755 2.457-.29 3.997-2.875 4.764-4.94 1.621-4.363 2.503-9.205 3.47-13.755.47-2.222.887-4.453 1.314-6.684.29-1.512 1.086-3.476.887-5.042-.318-2.5-2.215-3.383-4.53-3.445" transform="translate(78 74)"/>
        </g>
    </g>
</svg>
