<svg xmlns="http://www.w3.org/2000/svg" xmlns:xlink="http://www.w3.org/1999/xlink" width="224" height="214" viewBox="0 0 224 214">
    <defs>
        <path id="prefix__c" d="M205.634 88.317c0 46.567-37.75 84.317-84.317 84.317C74.75 172.634 37 134.884 37 88.317 37 41.75 74.75 4 121.317 4c46.567 0 84.317 37.75 84.317 84.317"/>
        <path id="prefix__d" d="M0.001 0.747L82.831 0.747 82.831 84 0.001 84z"/>
        <linearGradient id="prefix__a" x1="3.409%" x2="96.591%" y1="68.184%" y2="31.817%">
            <stop offset="0%" stop-color="#0070BC"/>
            <stop offset="100%" stop-color="#3FCDE2"/>
        </linearGradient>
        <filter id="prefix__b" width="127.9%" height="127.9%" x="-9.2%" y="-9.2%" filterUnits="objectBoundingBox">
            <feOffset dx="8" dy="8" in="SourceAlpha" result="shadowOffsetOuter1"/>
            <feGaussianBlur in="shadowOffsetOuter1" result="shadowBlurOuter1" stdDeviation="6.5"/>
            <feColorMatrix in="shadowBlurOuter1" values="0 0 0 0 0 0 0 0 0 0 0 0 0 0 0 0 0 0 0.25 0"/>
        </filter>
    </defs>
    <g fill="none" fill-rule="evenodd" transform="translate(-8 2)">
        <path fill="#FCBE1D" d="M180 126c0 47.497-38.503 86-86 86S8 173.497 8 126c0-47.496 38.503-86 86-86s86 38.504 86 86"/>
        <path fill="url(#prefix__a)" d="M232 97c0 51.363-41.638 93-93 93-51.363 0-93-41.637-93-93 0-51.362 41.637-93 93-93 51.362 0 93 41.638 93 93" style="mix-blend-mode:difference"/>
        <use fill="#000" filter="url(#prefix__b)" xlink:href="#prefix__c"/>
        <use fill="#F9F9F9" xlink:href="#prefix__c"/>
        <path stroke="#D0DCE2" stroke-linecap="round" stroke-linejoin="round" stroke-width="3.115" d="M135.498 185.293C84.376 197.095 33.365 165.22 21.563 114.098 9.76 62.976 41.635 11.965 92.758.162"/>
        <path fill="#D0DCE2" d="M71 11c0 4.418-3.582 8-8 8s-8-3.582-8-8 3.582-8 8-8 8 3.582 8 8"/>
        <g>
            <path fill="#9DA6AA" d="M34.599 49.234c-.773-.773-2.025-.773-2.799 0-.771.77-.771 2.023 0 2.797.774.77 2.026.77 2.799 0 .771-.774.771-2.026 0-2.797" transform="translate(77 46)"/>
            <path fill="#FFF" d="M34.66 49.174c.36.373.84.78 1.077 1.46.264.672.026 1.497-.498 2.04-1.058 1.147-3.127.921-3.767-.314-.34-.573-.463-1.147-.524-1.729-.058-.564-.08-1.306.354-1.9.41-.587 1.237-.862 1.9-.619.675.237 1.073.714 1.458 1.062m-.12.12c-.347-.388-.978-.339-1.34-.099-.376.24-.577.391-.897.54-.304.135-.752.423-.806.896-.067.455.236.91.633 1.07.814.297 1.426.073 1.826-.312.212-.189.4-.392.662-.756.242-.358.295-.98-.079-1.339" transform="translate(77 46)"/>
            <path fill="#9DA6AA" d="M56.976 35.247c-2.313 2.313-6.078 2.313-8.392 0-2.313-2.314-2.313-6.079-.001-8.393 2.32-2.318 6.074-2.318 8.393 0 2.319 2.32 2.319 6.074 0 8.393m2.798-11.189c-3.865-3.866-10.122-3.866-13.987 0-3.856 3.854-3.856 10.128 0 13.987 3.856 3.853 10.13 3.855 13.987 0 3.864-3.865 3.865-10.122 0-13.987" transform="translate(77 46)"/>
            <path fill="#FFF" d="M59.833 23.998c1.835 1.833 3.165 4.298 3.398 7.052.277 2.75-.833 5.624-2.815 7.633-1.982 2.032-4.84 3.127-7.635 3.052-2.806-.024-5.533-1.317-7.324-3.362-1.818-2.028-2.779-4.67-2.838-7.324-.026-1.328.152-2.677.59-3.965.442-1.284 1.147-2.499 2.08-3.529 1.875-2.05 4.756-3.188 7.492-2.93 2.75.215 5.207 1.554 7.052 3.373m-.12.12c-.914-.9-2.024-1.607-3.232-2.003-1.203-.408-2.478-.519-3.7-.423-2.45.24-4.714 1.236-6.493 2.864-1.785 1.59-3.06 3.953-3.118 6.493-.077 2.533 1.086 5.038 2.945 6.667 1.865 1.634 4.287 2.465 6.666 2.421 2.392-.056 4.681-1.086 6.353-2.736 1.697-1.646 2.722-3.915 2.978-6.35.251-2.435-.554-5.112-2.399-6.934" transform="translate(77 46)"/>
            <path fill="#FFF" d="M56.916 35.187c1.108-1.09 1.486-2.74 1.24-4.135-.26-1.4-.859-2.64-1.82-3.554-.943-.915-2.2-1.523-3.554-1.582-1.34-.042-2.732.367-3.867 1.266-1.125.897-1.864 2.37-1.79 3.866.05 1.509.923 2.827 1.958 3.699 1.047.886 2.282 1.467 3.696 1.694 1.4.245 3.057-.132 4.137-1.254m.12.12c-1.114 1.087-2.546 1.984-4.258 2.217-1.697.237-3.549-.457-4.696-1.777-1.173-1.325-1.572-3.096-1.509-4.7.064-1.614.6-3.227 1.685-4.523 1.058-1.308 2.754-2.18 4.525-2.207 1.758-.07 3.586.605 4.835 1.898 1.246 1.279 1.93 3.125 1.656 4.837-.236 1.717-1.139 3.154-2.238 4.255" transform="translate(77 46)"/>
            <path fill="#9DA6AA" d="M75.079 22.578L61.254 8.753c7.532-2.34 14.084-3.216 17.355-3.53-.314 3.27-1.19 9.823-3.53 17.355M59.775 49.233c-1.782 1.783-3.701 3.505-5.704 5.119-4.816 3.876-10.115 7.16-15.768 9.774L19.705 45.53c2.614-5.654 5.898-10.954 9.774-15.768 1.616-2.003 3.337-3.922 5.118-5.704 5.86-5.86 13.422-10.524 22.484-13.881L73.656 26.75c-3.357 9.06-8.02 16.623-13.882 22.483m-4.46 20.086c-2.59 4.841-9.115 8.41-15.062 9.64 1.895-3.569 2.313-8.11 1.621-10.864-.16-.64-.578-.96-.601-.998 4.793-2.322 9.333-5.108 13.547-8.311 2.058 3.76 2.227 7.297.495 10.532m-28.483-1.046c-.572.147-1.235-.068-1.729-.56-2.558-2.56-3.56-3.56-3.873-3.873l-5.108-5.11c-.493-.493-.71-1.157-.563-1.727.634-2.469 1.462-5 2.47-7.556l16.358 16.358c-2.558 1.007-5.089 1.837-7.555 2.468m-9.017 6.137c-2.72 2.72-9.1 4.154-13.133 4.74.585-4.031 2.02-10.412 4.74-13.132 1.524-1.522 3.29-2.676 5.065-3.327l6.655 6.657c-.65 1.774-1.804 3.54-3.327 5.063M4.872 43.58c1.229-5.947 4.799-12.472 9.64-15.064 3.236-1.731 6.773-1.561 10.534.498-3.203 4.211-5.988 8.752-8.311 13.545-.03-.017-.386-.465-1.047-.614-.272-.062-5.506-1.188-10.816 1.635m77.28-41.9c-.389-.39-.918-.6-1.47-.58-.448.016-11.096.444-23.754 4.918C46.787 9.6 38.331 14.729 31.8 21.26c-1.465 1.463-2.889 3.014-4.25 4.627-6.459-3.802-11.634-2.61-14.905-.858C5.113 29.059.45 40.005.45 47.834c0 .8.481 1.52 1.222 1.827.244.102.5.15.756.15.514 0 1.02-.2 1.399-.578C7.8 45.26 12.7 45.508 14.3 45.718l.691.692c-1.363 3.245-2.46 6.47-3.267 9.608-.29 1.135-.191 2.336.24 3.436-1.905.878-3.74 2.166-5.34 3.766C1.532 68.31.498 80.72.458 81.246c-.047.576.163 1.144.572 1.555.373.371.877.578 1.399.578.05 0 .104-.001.155-.005.526-.041 12.934-1.076 18.026-6.168 1.6-1.6 2.889-3.436 3.767-5.34 1.163.457 2.36.514 3.437.237 3.136-.803 6.361-1.903 9.605-3.266l.693.694c.21 1.6.459 6.5-3.513 10.472-.566.566-.735 1.416-.428 2.155.304.74 1.026 1.221 1.827 1.221 7.829 0 18.774-4.661 22.805-12.195 1.75-3.27 2.943-8.446-.86-14.904 1.613-1.361 3.165-2.785 4.629-4.25 6.53-6.53 11.659-14.986 15.24-25.128 4.474-12.658 4.903-23.307 4.918-23.755.02-.55-.19-1.082-.579-1.469" transform="translate(77 46)"/>
            <g transform="translate(77 46) translate(0 .253)">
                <mask id="prefix__e" fill="#fff">
                    <use xlink:href="#prefix__d"/>
                </mask>
                <path fill="#FFF" d="M82.212 1.366c.492.466.686 1.2.6 1.844-.03.645-.078 1.29-.13 1.932-.108 1.287-.26 2.57-.43 3.85-.349 2.559-.804 5.103-1.363 7.624-1.106 5.045-2.562 10.026-4.514 14.83-1.94 4.803-4.359 9.438-7.339 13.717-1.489 2.14-3.137 4.17-4.918 6.083-.879.972-1.843 1.845-2.794 2.735l-2.852 2.672.177-1.04c.628 1.1 1.23 2.227 1.664 3.436.431 1.207.752 2.464.902 3.752.317 2.577-.12 5.25-1.192 7.61-1.097 2.353-2.726 4.403-4.618 6.093-1.89 1.696-4.027 3.077-6.278 4.194-2.253 1.114-4.623 1.984-7.074 2.56-1.227.279-2.468.512-3.732.619-.627.079-1.264.095-1.9.112-.168.003-.298.014-.497.01-.22-.003-.44-.038-.653-.094-.427-.111-.824-.328-1.154-.618-.666-.58-1.025-1.483-.949-2.358.034-.438.174-.866.4-1.24.116-.187.248-.363.403-.517l.3-.323c.784-.827 1.442-1.767 1.94-2.79.998-2.037 1.372-4.413 1.102-6.675l.23.464-.69-.695.877.172c-2.124.88-4.287 1.674-6.488 2.352-1.104.342-2.197.649-3.34.929-1.268.297-2.61.162-3.793-.313l.928-.373c-1.037 2.173-2.459 4.125-4.22 5.754-1.829 1.645-4.006 2.69-6.208 3.496-2.212.797-4.489 1.333-6.777 1.752-1.144.209-2.295.378-3.449.51-.578.07-1.154.126-1.742.17-.709.06-1.446-.214-1.94-.725-.505-.504-.76-1.241-.689-1.938.056-.586.125-1.16.206-1.735.157-1.15.35-2.295.583-3.432.465-2.272 1.047-4.528 1.881-6.703.842-2.162 1.886-4.302 3.5-6.05 1.61-1.703 3.545-3.08 5.67-4.065l-.14.348c-.433-1.107-.544-2.35-.259-3.512.29-1.114.6-2.208.935-3.302.672-2.184 1.458-4.333 2.331-6.444l.063.325-.696-.69.175.086c-2.366-.281-4.825.108-6.959 1.152-1.068.522-2.042 1.223-2.897 2.045l-.327.309c-.129.128-.273.242-.429.338-.312.192-.668.313-1.035.343-.733.07-1.495-.228-1.988-.785-.246-.277-.433-.611-.529-.97-.049-.18-.08-.365-.085-.553-.004-.176.006-.317.008-.478.011-.624.022-1.25.094-1.867.095-1.244.317-2.471.582-3.684.545-2.426 1.37-4.786 2.447-7.033 1.077-2.245 2.42-4.381 4.077-6.28 1.651-1.898 3.684-3.512 6.007-4.614 2.331-1.073 4.977-1.52 7.538-1.218 1.28.142 2.531.454 3.734.877 1.206.426 2.33 1.024 3.426 1.648l-.942.16 2.66-2.858c.887-.952 1.757-1.918 2.725-2.8 1.906-1.782 3.93-3.44 6.066-4.93 4.273-2.981 8.903-5.405 13.705-7.35 4.801-1.953 9.782-3.408 14.826-4.516 2.52-.562 5.064-1.02 7.622-1.37 1.28-.17 2.562-.323 3.85-.431.642-.054 1.286-.102 1.931-.133.643-.086 1.378.106 1.844.599m-.12.12c-.444-.447-1.08-.615-1.714-.528-.642.037-1.283.093-1.923.153-1.282.12-2.558.287-3.833.47-2.547.378-5.077.86-7.583 1.448-5.01 1.18-9.904 2.83-14.603 4.89-4.695 2.07-9.18 4.608-13.274 7.659-2.047 1.523-4.019 3.144-5.847 4.918-.929.869-1.772 1.832-2.628 2.779l-2.572 2.838-.416.459-.527-.298c-2.055-1.164-4.27-2.04-6.575-2.314-2.302-.288-4.656.092-6.775 1.046-2.11.975-3.983 2.459-5.58 4.209-1.603 1.749-2.939 3.76-4.026 5.898-1.088 2.139-1.94 4.406-2.523 6.738-.285 1.166-.529 2.348-.648 3.54-.085.597-.108 1.194-.135 1.792-.015.32-.04.57.027.79.055.234.171.452.325.635.308.369.803.579 1.29.545.243-.014.483-.09.695-.211.107-.062.205-.137.295-.221l.347-.313c.926-.852 1.983-1.561 3.12-2.1 2.273-1.081 4.845-1.46 7.33-1.141l.102.013.073.073.688.696.142.143-.077.182c-.887 2.087-1.688 4.21-2.375 6.37-.347 1.079-.663 2.174-.933 3.267-.249 1.054-.143 2.183.26 3.19l.095.238-.235.11c-2.046.966-3.926 2.324-5.464 3.979-1.506 1.663-2.535 3.739-3.314 5.87-.775 2.144-1.306 4.377-1.719 6.624-.208 1.124-.375 2.256-.508 3.39-.068.567-.125 1.138-.169 1.699-.036.453.136.9.453 1.208.318.308.764.465 1.205.418.56-.056 1.128-.125 1.692-.205 1.13-.156 2.257-.347 3.373-.578 2.231-.46 4.442-1.036 6.55-1.848 2.092-.817 4.131-1.844 5.712-3.32 1.597-1.516 2.911-3.38 3.824-5.377l.284-.62.645.247c.933.36 1.962.44 2.91.203 1.063-.28 2.16-.597 3.227-.938 2.145-.681 4.254-1.475 6.328-2.355l.494-.21.384.383.696.69.195.193.034.272c.33 2.588-.064 5.243-1.192 7.613-.563 1.182-1.314 2.273-2.202 3.226l-.324.352c-.06.063-.11.134-.156.207-.088.148-.142.318-.152.49-.027.345.117.699.38.92.13.112.285.196.45.236.083.02.168.034.254.034l.42-.015c.584-.021 1.17-.04 1.756-.12 1.172-.106 2.34-.337 3.493-.61 2.307-.553 4.564-1.36 6.696-2.41 4.232-2.083 8.14-5.21 10.106-9.402.955-2.09 1.344-4.418 1.072-6.702-.258-2.288-1.117-4.498-2.273-6.55l-.329-.583.506-.456 2.843-2.56c.95-.852 1.914-1.692 2.785-2.617 1.776-1.822 3.405-3.787 4.931-5.831 3.052-4.088 5.595-8.568 7.668-13.26 2.06-4.698 3.712-9.591 4.894-14.6.59-2.505 1.074-5.035 1.453-7.581.185-1.274.352-2.551.474-3.832.061-.641.117-1.281.154-1.923.087-.633-.08-1.27-.526-1.714" mask="url(#prefix__e)"/>
            </g>
            <path fill="#FFF" d="M4.923 43.511c.238-.146.443-.31.624-.445.163-.13.393-.244.633-.367.463-.253.945-.467 1.435-.67.992-.37 2.02-.658 3.073-.85 1.052-.185 2.127-.26 3.205-.235.541.013 1.078.053 1.63.13.242.03.64.097.973.26.166.08.323.174.47.281.073.055.145.112.212.172l.1.091.042.043.011.011s.004.004-.002 0c-.04-.042-.089-.079-.137-.109l-1.237.36c.557-1.222 1.151-2.426 1.808-3.596.636-1.18 1.362-2.312 2.082-3.442.73-1.125 1.476-2.238 2.275-3.314.795-1.078 1.65-2.11 2.527-3.122l.158.743c-1.01-.63-2.092-1.165-3.238-1.506-1.148-.319-2.365-.455-3.544-.274-2.4.308-4.409 1.82-5.973 3.538-1.612 1.707-2.986 3.658-4.154 5.747-.574 1.051-1.115 2.126-1.6 3.235-.228.558-.489 1.11-.7 1.681l-.318.818c-.093.23-.25.497-.355.82zm-.102.136c.033-.274.013-.604.057-.972.044-.389.103-.634.153-.96.096-.616.241-1.224.401-1.827.318-1.208.761-2.385 1.278-3.529 1.057-2.269 2.44-4.463 4.376-6.152.98-.824 2.047-1.55 3.21-2.085 1.172-.513 2.407-.857 3.662-.985 2.52-.262 5.048.364 7.328 1.436l.496.233-.338.511c-.729 1.1-1.427 2.22-2.13 3.331-.7 1.114-1.396 2.228-2.053 3.366-.667 1.131-1.272 2.296-1.909 3.442-.616 1.16-1.239 2.313-1.837 3.481l-.443.862-.794-.504c-.055-.035-.109-.077-.156-.123l-.018-.019-.024-.024-.023-.025-.042-.042-.085-.076c-.06-.048-.122-.09-.188-.125-.129-.073-.242-.11-.506-.165-.464-.099-.954-.172-1.442-.22-.979-.108-1.975-.133-2.97-.084-.998.041-1.995.174-2.98.39-.49.116-.99.22-1.474.378-.239.066-.487.148-.782.255l-.767.232zM17.753 74.35c.705-.727 1.328-1.534 1.808-2.42.488-.88.834-1.827 1.07-2.771l.125.572c-1.248-.971-2.426-2.011-3.557-3.099-1.142-1.077-2.257-2.181-3.342-3.314l.933.206c-1.478.493-2.872 1.325-4.119 2.339-.642.52-1.195 1.026-1.694 1.647-.49.629-.94 1.319-1.326 2.051-.78 1.462-1.353 3.057-1.73 4.688-.397 1.632-.537 3.319-.66 4.985l-.664-.664c2.274-.555 4.532-1.047 6.802-1.533 1.138-.234 2.272-.513 3.371-.909 1.097-.392 2.138-.973 2.983-1.778m.12.12c-.849.845-1.863 1.485-2.883 2.117-1.027.623-2.113 1.16-3.224 1.631-2.236.913-4.613 1.372-7 1.512l-.823.048.158-.712c.37-1.674.868-3.307 1.3-4.947.447-1.64.901-3.275 1.481-4.903.31-.806.657-1.609 1.102-2.386.454-.775 1.078-1.496 1.71-2.081 1.288-1.211 2.795-2.213 4.486-2.893l.506-.204.427.41c1.133 1.085 2.238 2.199 3.315 3.342 1.088 1.131 2.128 2.308 3.098 3.556l.25.321-.124.253c-.467.966-1.076 1.833-1.715 2.646-.65.809-1.33 1.576-2.064 2.29M26.81 68.19c1.276-.35 2.537-.761 3.75-1.294 1.218-.525 2.408-1.104 3.583-1.705l-.224 1.078c-1.495-1.231-2.873-2.58-4.262-3.916-1.381-1.346-2.717-2.735-4.04-4.14-1.327-1.398-2.67-2.782-3.945-4.233-1.273-1.451-2.54-2.912-3.852-4.325l.48-.101c-.802 1.866-1.452 3.798-1.87 5.785l-.298 1.492c-.02.113-.055.273-.061.347-.007.079-.004.16.009.242.028.165.09.33.19.48.102.158.207.268.383.414.193.167.385.335.57.51.37.349.754.688 1.11 1.05 1.47 1.414 2.823 2.943 4.113 4.535.653.787 1.3 1.582 1.968 2.353.343.367.676.793 1.034 1.102.385.288.892.437 1.362.327m.042.164c-.527.14-1.095-.012-1.53-.316-.445-.321-.773-.68-1.17-1.015-.771-.67-1.566-1.314-2.353-1.97-1.592-1.29-3.122-2.641-4.535-4.11-.362-.358-.7-.74-1.05-1.112-.175-.185-.342-.376-.51-.571-.191-.207-.407-.502-.534-.8-.136-.3-.215-.635-.218-.98 0-.173.02-.348.063-.518.047-.175.084-.26.126-.393l.517-1.455 2.096-5.777.149-.408.333.309c1.413 1.312 2.874 2.578 4.325 3.852 1.45 1.276 2.835 2.619 4.233 3.946 1.406 1.32 2.794 2.658 4.14 4.039 1.337 1.389 2.685 2.767 3.916 4.26l.677.822-.901.259c-1.291.37-2.593.696-3.895.998-1.304.293-2.587.63-3.88.94M55.24 69.279c.418-.811.73-1.678.865-2.573.143-.893.12-1.801-.034-2.674-.302-1.757-1.1-3.342-1.978-4.85l1.227.262c-2.084 1.689-4.285 3.24-6.616 4.569-2.322 1.342-4.69 2.61-7.176 3.612l.243-.838c-.016-.028-.036-.053-.057-.076-.017-.017-.008-.007-.008-.007s0 .002.009.01l.036.04.079.09c.053.065.102.13.149.2.093.135.173.28.238.432.064.152.115.308.147.467l.065.409c.08.539.119 1.073.124 1.606.002 1.063-.087 2.11-.234 3.147-.147 1.036-.356 2.062-.637 3.07-.271 1.013-.604 2.017-1.033 2.994l-.487-.65c1.457-.4 2.857-.962 4.229-1.551 1.373-.59 2.718-1.23 4.045-1.915 1.326-.686 2.637-1.433 3.833-2.363 1.195-.926 2.24-2.073 2.972-3.411m.149.08c-.732 1.36-1.673 2.6-2.715 3.765-1.045 1.162-2.232 2.222-3.538 3.106-1.306.885-2.733 1.58-4.217 2.1-1.485.522-3.031.845-4.576 1.068l-.992.143.504-.793c.538-.845.972-1.77 1.294-2.732.314-.966.527-1.966.632-2.977.105-1.011.1-2.032-.027-3.03-.063-.496-.147-.988-.282-1.458l-.101-.346c-.031-.091-.074-.176-.122-.257-.048-.08-.105-.156-.167-.225l-.1-.1-.053-.047-.033-.027-.025-.025-.025-.023c-.027-.03-.051-.062-.074-.096l-.33-.508.573-.33c2.289-1.311 4.583-2.592 6.786-4.024 2.19-1.445 4.376-2.893 6.516-4.416l.803-.572.424.833c.873 1.714 1.359 3.665 1.32 5.586-.037 1.925-.587 3.764-1.475 5.385M59.715 49.174c1.551-1.58 3.011-3.255 4.322-5.038 1.332-1.768 2.495-3.655 3.584-5.573 1.085-1.923 2.053-3.908 2.928-5.928.863-2.026 1.671-4.072 2.396-6.148l.175.797c-1.404-1.358-2.833-2.69-4.217-4.07l-4.173-4.113-4.146-4.142-4.12-4.166.921.201c-4.102 1.48-8.077 3.304-11.834 5.51-3.759 2.195-7.293 4.786-10.475 7.777-3.173 3.014-6.069 6.342-8.582 9.946-1.273 1.788-2.452 3.646-3.509 5.57-1.065 1.92-2.074 3.873-2.943 5.89l-.074-.42 9.53 9.065 4.686 4.613c1.573 1.527 3.088 3.112 4.624 4.674l-.807-.143c3.961-1.76 7.846-3.747 11.502-6.127 1.827-1.189 3.626-2.434 5.325-3.808 1.713-1.356 3.33-2.833 4.887-4.367m.12.12c-1.54 1.56-3.166 3.032-4.819 4.473-1.673 1.418-3.363 2.824-5.138 4.124-1.768 1.305-3.594 2.544-5.474 3.697-1.873 1.166-3.815 2.221-5.8 3.188l-.444.215-.365-.359c-1.563-1.536-3.147-3.05-4.674-4.624l-4.613-4.686-9.066-9.529-.187-.196.112-.224c.99-1.982 1.994-3.955 3.121-5.859 1.13-1.903 2.302-3.778 3.543-5.61 2.512-3.638 5.263-7.127 8.348-10.326 3.08-3.218 6.612-6 10.398-8.356 3.793-2.353 7.84-4.274 12-5.865l.518-.198.403.4 4.167 4.12 4.142 4.145 4.113 4.174c1.38 1.383 2.712 2.813 4.071 4.216l.346.36-.173.438c-.819 2.085-1.728 4.137-2.77 6.12-1.03 1.986-2.157 3.921-3.37 5.794-1.21 1.878-2.55 3.664-3.934 5.406-1.403 1.727-2.872 3.402-4.456 4.962M75.058 22.495c.135-.83.179-1.35.336-2.133l.402-2.176.725-4.352c.229-1.45.447-2.899.646-4.348l.575-4.348.951.952c-1.456.104-2.914.255-4.368.438l-4.375.545c-1.458.204-2.92.423-4.358.751-1.436.33-2.859.726-4.244 1.232l.13-.528 3.57 3.124c1.162 1.029 2.245 2.118 3.318 3.298 1.079 1.152 2.149 2.363 3.254 3.617l3.438 3.928zm.041.165l-3.475-2.983c-1.199-1.052-2.432-2.145-3.657-3.296-1.232-1.124-2.453-2.34-3.596-3.616l-3.342-3.789-.359-.405.49-.123c1.44-.362 2.863-.772 4.291-1.178 1.426-.406 2.849-.84 4.288-1.228 2.871-.82 5.816-1.32 8.787-1.688l1.023-.128-.071 1.08c-.1 1.495-.292 2.978-.537 4.452-.249 1.473-.552 2.935-.913 4.384-.362 1.447-.774 2.88-1.257 4.291-.246.707-.466 1.416-.753 2.107-.234.643-.629 1.534-.919 2.12z" transform="translate(77 46)"/>
            <path fill="#9DA6AA" d="M42.99 40.841c-.772-.772-2.024-.772-2.797 0l-2.797 2.797c-.772.772-.772 2.024 0 2.798.773.772 2.025.772 2.797 0l2.797-2.797c.772-.773.772-2.026 0-2.798" transform="translate(77 46)"/>
            <path fill="#FFF" d="M43.05 40.78c.601.6 1.088 1.574.768 2.677-.07.26-.229.545-.372.739-.118.182-.24.358-.374.525-.266.332-.549.648-.838.958-.294.306-.593.606-.913.885l-.476.423c-.18.16-.454.374-.718.49-.538.258-1.154.334-1.71.192-.56-.128-1.034-.49-1.35-.905-.629-.865-.662-1.943-.248-2.806.091-.221.244-.436.38-.616l.365-.535c.235-.364.47-.728.73-1.067.263-.337.546-.651.866-.932.16-.14.327-.272.502-.396.192-.144.466-.306.721-.382 1.097-.32 2.058.164 2.667.75m-.12.12c-.286-.286-.699-.447-1.089-.4-.39.024-.725.243-.938.48-.123.12-.17.239-.28.392-.125.176-.258.343-.397.502-.28.319-.595.603-.932.866-.339.26-.704.495-1.067.73l-.534.365c-.16.12-.289.228-.393.385-.43.625-.172 1.56.425 1.887.586.342 1.227.24 1.632-.04.114-.08.164-.147.285-.283l.423-.476c.28-.32.58-.62.884-.913.311-.29.626-.572.96-.84.165-.131.342-.254.525-.372.152-.108.276-.145.401-.263.237-.21.455-.541.483-.928.047-.387-.107-.798-.388-1.091" transform="translate(77 46)"/>
        </g>
    </g>
</svg>
