<svg xmlns="http://www.w3.org/2000/svg" width="61" height="60" viewBox="0 0 61 60">
    <g fill="none" fill-rule="evenodd" stroke="#272727" stroke-width=".987">
        <path d="M31.576 21.442c0-3.613-2.154-9.232-6.307-9.232-1.306 0-2.705.65-3.508 1.656-.852 1.055-1.1 2.405-1.1 3.714 0 3.36 1.95 8.928 6.259 8.928 1.25 0 2.599-.598 3.404-1.402 1.152-1.158 1.252-2.76 1.252-3.664zM28.87 34.638c-.398-.05-.65-.05-1.15-.05-.451 0-3.155.099-5.257.806-1.101.399-4.305 1.604-4.305 5.167 0 3.563 3.455 6.125 8.812 6.125 4.808 0 7.362-2.314 7.362-5.42 0-2.567-1.652-3.917-5.461-6.628z"/>
        <path d="M46.123 28.938v5.047h-2.478v-5.047h-5.01v-2.505h5.01v-5.016h2.478v5.016h5.034v2.505h-5.034zm-21.61 19.85c-7.26 0-10.763-3.46-10.763-7.175 0-1.806.899-4.363 3.854-6.12 3.103-1.908 7.31-2.157 9.566-2.312-.703-.902-1.502-1.855-1.502-3.411 0-.852.25-1.353.498-1.956-.551.05-1.1.1-1.601.1-5.306 0-8.31-3.967-8.31-7.88 0-2.305 1.05-4.867 3.203-6.723 2.855-2.358 6.757-2.998 9.463-2.998h9.866l-3.256 2.046h-3.102c1.15.952 3.55 2.959 3.55 6.774 0 3.71-2.1 5.472-4.201 7.126-.652.65-1.404 1.354-1.404 2.459 0 1.102.752 1.703 1.3 2.158l1.806 1.402c2.204 1.855 4.207 3.562 4.206 7.028-.001 4.718-4.56 9.483-13.172 9.483zM30.139.502C13.845.5.638 13.708.638 30c0 16.292 13.207 29.5 29.5 29.5 16.292 0 29.5-13.208 29.5-29.5S46.43.5 30.138.5z"/>
    </g>
</svg>
