<svg xmlns="http://www.w3.org/2000/svg" width="61" height="60" viewBox="0 0 61 60">
    <g fill="none" fill-rule="evenodd">
        <path stroke="#272727" stroke-width=".987" d="M30.427.5C14.137.5.927 13.71.927 30s13.21 29.5 29.5 29.5 29.5-13.21 29.5-29.5S46.716.5 30.426.5z"/>
        <path fill="#000" d="M45.728 37.041c0 3.858-3.139 6.998-6.998 6.998H23.596c-3.858 0-6.998-3.14-6.998-6.998V21.906c0-3.859 3.14-6.998 6.998-6.998H38.73c3.86 0 6.998 3.14 6.998 6.998v15.135zM38.73 12.974H23.596c-4.925 0-8.932 4.006-8.932 8.932v15.135c0 4.925 4.007 8.933 8.932 8.933H38.73c4.926 0 8.934-4.008 8.934-8.933V21.906c0-4.926-4.008-8.932-8.934-8.932z"/>
        <path stroke="#FFF" d="M45.728 37.041c0 3.858-3.139 6.998-6.998 6.998H23.596c-3.858 0-6.998-3.14-6.998-6.998V21.906c0-3.859 3.14-6.998 6.998-6.998H38.73c3.86 0 6.998 3.14 6.998 6.998v15.135zM38.73 12.974H23.596c-4.925 0-8.932 4.006-8.932 8.932v15.135c0 4.925 4.007 8.933 8.932 8.933H38.73c4.926 0 8.934-4.008 8.934-8.933V21.906c0-4.926-4.008-8.932-8.934-8.932z"/>
        <path fill="#000" d="M31.163 36.562c-3.908 0-7.088-3.18-7.088-7.088 0-3.91 3.18-7.09 7.088-7.09 3.91 0 7.09 3.18 7.09 7.09 0 3.908-3.18 7.088-7.09 7.088m0-16.111c-4.975 0-9.023 4.048-9.023 9.023 0 4.976 4.048 9.023 9.023 9.023 4.976 0 9.023-4.047 9.023-9.023 0-4.975-4.047-9.023-9.023-9.023"/>
        <path stroke="#FFF" d="M31.163 36.562c-3.908 0-7.088-3.18-7.088-7.088 0-3.91 3.18-7.09 7.088-7.09 3.91 0 7.09 3.18 7.09 7.09 0 3.908-3.18 7.088-7.09 7.088zm0-16.111c-4.975 0-9.023 4.048-9.023 9.023 0 4.976 4.048 9.023 9.023 9.023 4.976 0 9.023-4.047 9.023-9.023 0-4.975-4.047-9.023-9.023-9.023z"/>
        <path fill="#000" d="M40.402 20.644c-.403 0-.732-.328-.732-.731 0-.405.33-.732.732-.732.404 0 .732.327.732.732 0 .403-.328.73-.732.73m0-3.396c-1.47 0-2.666 1.195-2.666 2.666 0 1.469 1.196 2.666 2.666 2.666s2.667-1.197 2.667-2.666c0-1.471-1.197-2.666-2.667-2.666"/>
        <path stroke="#FFF" d="M40.402 20.644c-.403 0-.732-.328-.732-.731 0-.405.33-.732.732-.732.404 0 .732.327.732.732 0 .403-.328.73-.732.73zm0-3.397c-1.47 0-2.666 1.195-2.666 2.666 0 1.469 1.196 2.666 2.666 2.666s2.667-1.197 2.667-2.666c0-1.471-1.197-2.666-2.667-2.666z"/>
    </g>
</svg>
