<svg xmlns="http://www.w3.org/2000/svg" width="61" height="60" viewBox="0 0 61 60">
    <g fill="none" fill-rule="evenodd" stroke="#000">
        <path d="M25.896 35.527L35.492 30.001 25.896 24.473z" transform="translate(1)"/>
        <path d="M48.004 30.03s0 5.983-.76 8.867c-.424 1.58-1.67 2.825-3.248 3.25-2.885.76-14.425.76-14.425.76s-11.51 0-14.424-.79c-1.58-.425-2.825-1.67-3.25-3.25-.76-2.854-.76-8.866-.76-8.866s0-5.984.76-8.867c.425-1.58 1.7-2.855 3.25-3.282 2.884-.759 14.424-.759 14.424-.759s11.54 0 14.425.79c1.579.425 2.824 1.67 3.249 3.25.79 2.884.759 8.898.759 8.898zM29.57.5C13.28.5.07 13.71.07 30s13.21 29.5 29.5 29.5 29.5-13.21 29.5-29.5S45.86.5 29.57.5z" transform="translate(1)"/>
    </g>
</svg>
