<svg xmlns="http://www.w3.org/2000/svg" width="61" height="60" viewBox="0 0 61 60">
    <path fill="none" fill-rule="evenodd" stroke="#272727" stroke-width=".987" d="M43.752 23.501c.012.29.018.582.018.875 0 8.947-6.81 19.265-19.265 19.266h.002-.002c-3.823 0-7.381-1.12-10.378-3.042.53.062 1.068.093 1.614.093 3.174 0 6.093-1.082 8.41-2.898-2.963-.055-5.462-2.013-6.325-4.703.412.08.837.122 1.273.122.617 0 1.216-.083 1.785-.238-3.099-.62-5.433-3.359-5.433-6.637 0-.03 0-.059.002-.087.913.508 1.956.812 3.067.847-1.819-1.213-3.013-3.287-3.013-5.636 0-1.24.335-2.403.917-3.403 3.338 4.096 8.329 6.791 13.957 7.074-.116-.496-.177-1.013-.177-1.544 0-3.738 3.032-6.77 6.773-6.77 1.947 0 3.706.823 4.942 2.14 1.543-.306 2.99-.869 4.3-1.645-.508 1.581-1.58 2.907-2.979 3.746 1.37-.164 2.675-.528 3.889-1.067-.907 1.36-2.055 2.551-3.377 3.507zm-13.47-23C13.992.5.782 13.71.782 30s13.21 29.5 29.5 29.5 29.5-13.21 29.5-29.5S46.572.5 30.282.5z"/>
</svg>
