<svg xmlns="http://www.w3.org/2000/svg" width="190" height="597" viewBox="0 0 190 597">
    <defs>
        <linearGradient id="prefix__a" x1="95.586%" x2="21.576%" y1="7.052%" y2="100.712%">
            <stop offset="0%" stop-color="#3FCDE2"/>
            <stop offset="100%" stop-color="#108287"/>
        </linearGradient>
        <linearGradient id="prefix__b" x1="100%" x2="0%" y1="50%" y2="50%">
            <stop offset="0%" stop-color="#EF6059"/>
            <stop offset="100%" stop-color="#C33F2F"/>
        </linearGradient>
    </defs>
    <g fill="none" fill-rule="evenodd">
        <path fill="url(#prefix__a)" d="M145.895 42.771C3.754 123.75-42.35 298.824 42.92 433.812c82.62 130.794 371.21 186.477 398.395 104.981 23.667-55.98-117.435-79.927-138.109-161.353-12.878-50.721 32.381-106.136 105.92-173.81 59.762-55.516 23.076-176.306-57.616-197.285C335.247 2.042 317.711 0 299.523 0c-50.648 0-106.344 15.834-153.628 42.771" transform="translate(0 -21)"/>
        <path fill="#1E2C64" d="M243.066 224.34c50.581 102.353 96.671 123.398 147.222 121.123 81.151-3.651 128.417-120.73 177.644-90.695 72.925 37.478-30.133 275.773-169.048 324.09-143.37 49.868-302.163-20.081-354.673-156.237-23.74-61.555-28.272-133.83.93-182.967 42.304-68.515 162.865-91.415 197.925-15.313" transform="translate(0 -21)"/>
        <path fill="#FCBE1D" d="M189.86 497.361c-44.662 7.84-77.387 9.124-93.378-8.337-25.67-28.03 1.497-82.616-25.892-88.887-38.002-11.624-91.014 101.74-62.485 163.724 29.445 63.973 54.077 64.432 121.441 36.47 30.455-12.643 96.18 26.755 120.576-32.47 15.04-33.37-23.77-76.735-60.263-70.5" transform="translate(0 -21)"/>
        <g fill="#FFF" opacity=".456">
            <path d="M28.84 1.402c-.826-.742-2.111-.766-2.968-.055C24.839 2.207.439 22.688.04 42.244-.096 48.948 2.53 55.31 7.44 60.155c4.393 4.337 10.137 6.985 16.357 7.587l.98-48.098c.024-1.157 1.03-2.076 2.25-2.054 1.217.022 2.186.98 2.163 2.135l-.982 48.097c6.43-.387 12.263-2.97 16.653-6.98 4.886-4.464 7.983-10.696 8.125-17.626C53.384 23.66 29.843 2.301 28.84 1.402M26 67.87c-.74-.014-1.475-.058-2.203-.128l-.406 19.93c-.025 1.156.944 2.112 2.163 2.135.608.01 1.165-.213 1.572-.585.406-.373.664-.89.676-1.47l.406-19.93c-.729.044-1.465.062-2.208.048" transform="translate(0 -21) translate(42 497)"/>
        </g>
        <path fill="url(#prefix__b)" d="M70.52 285.68c0 28.474 24.21 51.555 54.072 51.555 29.864 0 54.073-23.081 54.073-51.555s-24.209-51.557-54.073-51.557c-29.862 0-54.072 23.083-54.072 51.557" transform="translate(0 -21)"/>
        <g fill="#FAFAFA" stroke="#FFF" stroke-width=".902" opacity=".659">
            <path d="M42.17 51.053c4.508-1.427 6.799-4.712 6.872-9.855v-6.024c0-4.245 1.707-7.045 5.119-8.401-3.412-1.286-5.12-4.096-5.12-8.43v-5.626c0-5.513-2.261-8.957-6.787-10.331l.724-2.087c3.134.899 5.48 2.343 7.039 4.333 1.557 1.99 2.345 4.597 2.364 7.82v6.05c0 4.598 2.143 6.897 6.427 6.897v2.747c-4.284 0-6.427 2.316-6.427 6.949v5.839c0 3.293-.788 5.935-2.364 7.926-1.577 1.99-3.923 3.425-7.04 4.306l-.806-2.113zM17.354 45.16L41.865 45.16 41.865 42.492 17.354 42.492zM16.241 53.166c-3.115-.881-5.462-2.316-7.038-4.307-1.576-1.99-2.365-4.632-2.365-7.925v-5.839c0-4.633-2.142-6.95-6.426-6.95v-2.747c4.284 0 6.426-2.298 6.426-6.895V12.61c0-3.275.775-5.922 2.323-7.938 1.55-2.017 3.91-3.475 7.08-4.373l.724 2.087c-4.526 1.339-6.788 4.792-6.788 10.357v5.627c0 4.422-1.79 7.231-5.37 8.429 3.58 1.197 5.37 4.024 5.37 8.48v5.918c.074 5.144 2.365 8.429 6.872 9.856l-.808 2.113z" transform="translate(0 -21) translate(95 259)"/>
        </g>
    </g>
</svg>
