<svg xmlns="http://www.w3.org/2000/svg" width="210" height="523" viewBox="0 0 210 523">
    <defs>
        <linearGradient id="prefix__a" x1="50%" x2="50%" y1="-.352%" y2="113.641%">
            <stop offset="0%" stop-color="#1D2B64"/>
            <stop offset="100%" stop-color="#668ADD"/>
        </linearGradient>
        <linearGradient id="prefix__b" x1="78.258%" x2="30.66%" y1="85.833%" y2="-13.021%">
            <stop offset="0%" stop-color="#EF6059"/>
            <stop offset="100%" stop-color="#C33F2F"/>
        </linearGradient>
    </defs>
    <g fill="none" fill-rule="evenodd">
        <path fill="url(#prefix__a)" d="M237.743 0c-14.653.035-28.775 1.788-41.887 5.441-65.706 17.988-95.582 121.561-46.917 169.165 59.883 58.027 96.739 105.544 86.253 149.036-16.836 69.82-131.737 90.354-112.464 138.355 22.137 69.88 257.139 22.133 324.417-90.018 69.436-115.747 31.893-265.867-83.855-335.304C324.937 13.667 279.783.106 238.668 0h-.925z" transform="translate(-317 -14)"/>
        <path fill="#FCBE1D" d="M284.163 192.365c-42.119 64.23-78.72 105.809-119.883 103.858C98.198 293.093 59.708 192.7 19.62 218.455-39.76 250.592 44.16 454.92 157.28 496.352c116.747 42.759 246.054-17.22 288.813-133.968 19.332-52.783 17.662-108.131-.757-156.89-25.365-59.455-126.538-65.404-161.173-13.13" opacity=".914" transform="translate(-317 -14)"/>
        <path fill="url(#prefix__b)" d="M257.845 390.868c-21.585 49.469 39.532 63.218 49.329 88.152 15.172 38.609 26.745 56.927 51.245 57.006h.316c10.438-.032 23.214-3.344 39.59-9.779 53.436-20.997 91.149-119.285 62.498-133.937-19.386-11.824-36.607 36.436-68.059 38.662-19.591 1.387-37.491-18.016-58.273-48.151-7.581-10.883-21.274-16.156-35.164-16.155-17.41.001-35.128 8.288-41.482 24.202" transform="translate(-317 -14)"/>
        <g>
            <g fill="#FAFAFA" stroke="#FFF" stroke-width=".844" opacity=".55">
                <path d="M38.612 49.129c4.11-1.37 6.2-4.523 6.266-9.462v-5.783c0-4.076 1.556-6.765 4.668-8.067-3.112-1.235-4.668-3.932-4.668-8.092V12.32c0-5.293-2.063-8.6-6.19-9.92L39.348.4c2.858.862 4.997 2.249 6.418 4.16 1.421 1.91 2.14 4.414 2.156 7.508v5.809c0 4.414 1.953 6.62 5.86 6.62v2.64c-3.907 0-5.86 2.223-5.86 6.672v5.605c0 3.163-.719 5.699-2.156 7.61-1.437 1.912-3.577 3.29-6.418 4.135l-.736-2.03zM15.985 43.473L38.334 43.473 38.334 40.91 15.985 40.91zM14.97 51.158c-2.84-.846-4.98-2.224-6.418-4.135-1.437-1.91-2.156-4.447-2.156-7.61v-5.606c0-4.448-1.954-6.67-5.86-6.67v-2.64c3.906 0 5.86-2.207 5.86-6.62V12.22c0-3.146.706-5.687 2.118-7.624C9.926 2.66 12.078 1.261 14.97.398l.66 2.004c-4.127 1.285-6.19 4.601-6.19 9.944v5.404c0 4.245-1.632 6.942-4.896 8.092 3.264 1.15 4.896 3.864 4.896 8.142v5.683c.068 4.938 2.156 8.093 6.265 9.462l-.735 2.03z" transform="translate(-317 -14) translate(369 64.026) translate(0 379)"/>
            </g>
            <path fill="#40CEE3" d="M55.944 51.986c0 28.207 22.776 51.074 50.87 51.074 28.096 0 50.872-22.867 50.872-51.074 0-28.208-22.776-51.075-50.871-51.075-28.095 0-50.871 22.867-50.871 51.075" transform="translate(-317 -14) translate(369 64.026)"/>
            <g fill="#FFF" opacity=".476">
                <path d="M22.615 1.11c.744-.707 1.903-.732 2.677-.059.933.814 22.987 20.21 23.39 38.782.139 6.367-2.215 12.414-6.631 17.026-3.953 4.128-9.126 6.656-14.735 7.24l-.995-45.675c-.024-1.098-.934-1.969-2.033-1.945-1.098.024-1.97.934-1.945 2.032l.995 45.674c-5.801-.353-11.067-2.794-15.034-6.592-4.418-4.229-7.225-10.139-7.368-16.72C.53 22.3 21.713 1.964 22.615 1.11" transform="translate(-317 -14) translate(369 64.026) translate(82 18)"/>
                <path d="M25.329 64.225c.667-.014 1.33-.058 1.987-.126l.412 18.926c.025 1.098-.847 2.01-1.945 2.032-.55.013-1.052-.199-1.42-.552-.368-.35-.601-.843-.613-1.393l-.412-18.927c.657.04 1.321.055 1.991.04" transform="translate(-317 -14) translate(369 64.026) translate(82 18)"/>
            </g>
        </g>
    </g>
</svg>
