<?xml version="1.0" encoding="UTF-8" standalone="no"?>
<!-- Created with Inkscape (http://www.inkscape.org/) -->

<svg
   xmlns:dc="http://purl.org/dc/elements/1.1/"
   xmlns:cc="http://creativecommons.org/ns#"
   xmlns:rdf="http://www.w3.org/1999/02/22-rdf-syntax-ns#"
   xmlns:svg="http://www.w3.org/2000/svg"
   xmlns="http://www.w3.org/2000/svg"
   xmlns:sodipodi="http://sodipodi.sourceforge.net/DTD/sodipodi-0.dtd"
   xmlns:inkscape="http://www.inkscape.org/namespaces/inkscape"
   width="2999.0901"
   height="520"
   id="svg19171"
   version="1.1"
   inkscape:version="0.48.4 r9939"
   sodipodi:docname="Neues Dokument 21">
  <defs
     id="defs19173" />
  <sodipodi:namedview
     id="base"
     pagecolor="#ffffff"
     bordercolor="#666666"
     borderopacity="1.0"
     inkscape:pageopacity="0.0"
     inkscape:pageshadow="2"
     inkscape:zoom="0.52029274"
     inkscape:cx="1499.545"
     inkscape:cy="260"
     inkscape:document-units="px"
     inkscape:current-layer="layer1"
     showgrid="false"
     fit-margin-top="0"
     fit-margin-left="0"
     fit-margin-right="0"
     fit-margin-bottom="0"
     inkscape:window-width="1680"
     inkscape:window-height="990"
     inkscape:window-x="-4"
     inkscape:window-y="-4"
     inkscape:window-maximized="1" />
  <metadata
     id="metadata19176">
    <rdf:RDF>
      <cc:Work
         rdf:about="">
        <dc:format>image/svg+xml</dc:format>
        <dc:type
           rdf:resource="http://purl.org/dc/dcmitype/StillImage" />
        <dc:title></dc:title>
      </cc:Work>
    </rdf:RDF>
  </metadata>
  <g
     inkscape:label="Ebene 1"
     inkscape:groupmode="layer"
     id="layer1"
     transform="translate(-171.38531,186.63138)">
    <g
       id="g12928"
       transform="matrix(46.498022,0,0,-46.498022,2525.2673,15.95913)"
       style="fill:#231f20;fill-opacity:1">
      <path
         inkscape:connector-curvature="0"
         d="m 0,0 3.81,0 c 1.144,0 2.014,-0.106 2.503,-0.38 0.492,-0.271 0.709,-0.761 0.709,-1.414 l 0,-3.158 -2.015,0 0,2.995 c 0,0.381 -0.109,0.599 -0.272,0.707 -0.163,0.109 -0.543,0.163 -1.088,0.163 l -1.632,0 0,-3.865 L 0,-4.952 0,0 z"
         style="fill:#231f20;fill-opacity:1;fill-rule:evenodd;stroke:none"
         id="path12930" />
    </g>
    <path
       inkscape:connector-curvature="0"
       d="m 1178.968,246.23147 -98.7153,0 0,-316.372542 98.7153,0 0,316.372542 z"
       style="fill:#231f20;fill-opacity:1;fill-rule:evenodd;stroke:none"
       id="path12932" />
    <g
       id="g12934"
       transform="matrix(46.498022,0,0,-46.498022,761.453,114.58627)"
       style="fill:#231f20;fill-opacity:1">
      <path
         inkscape:connector-curvature="0"
         d="m 0,0 0,1.197 5.224,0 0,-4.028 -4.735,0 c -0.871,0 -1.578,0.054 -2.014,0.164 -0.49,0.055 -0.925,0.218 -1.359,0.436 -0.545,0.273 -0.927,0.652 -1.199,1.088 -0.273,0.435 -0.381,0.979 -0.381,1.577 0,1.199 0.381,2.068 1.199,2.668 0.815,0.544 2.067,0.871 3.754,0.871 l 4.735,0 0,-1.197 -4.735,0 c -0.871,0 -1.524,-0.163 -1.904,-0.544 -0.382,-0.382 -0.6,-0.926 -0.6,-1.742 0,-0.707 0.218,-1.253 0.6,-1.579 0.38,-0.327 1.033,-0.49 1.904,-0.49 l 2.504,0 L 2.993,0 0,0 z"
         style="fill:#231f20;fill-opacity:1;fill-rule:evenodd;stroke:none"
         id="path12936" />
    </g>
    <g
       id="g12938"
       transform="matrix(46.498022,0,0,-46.498022,1426.9327,248.70033)"
       style="fill:#c1d72f;fill-opacity:1">
      <path
         inkscape:connector-curvature="0"
         d="m 0,0 c -1.25,0 -2.285,0.218 -2.993,0.653 -0.761,0.49 -1.142,1.089 -1.142,1.904 0,0.761 0.381,1.416 1.142,1.851 C -2.285,4.899 -1.25,5.116 0,5.116 0.11,5.116 0.219,5.115 0.325,5.111 1.423,5.076 2.294,4.855 2.94,4.408 3.702,3.973 4.083,3.318 4.083,2.557 4.083,1.742 3.702,1.143 2.994,0.653 2.232,0.218 1.252,0 0,0 m 0,1.033 c 0.6,0 1.09,0.165 1.417,0.382 C 1.744,1.689 1.96,2.069 1.96,2.557 1.96,2.994 1.744,3.374 1.417,3.647 1.09,3.918 0.6,4.027 0,4.027 c -0.652,0 -1.142,-0.109 -1.468,-0.38 -0.326,-0.273 -0.49,-0.653 -0.49,-1.09 0,-0.488 0.164,-0.868 0.49,-1.142 C -1.142,1.198 -0.652,1.033 0,1.033"
         style="fill:#c1d72f;fill-opacity:1;fill-rule:evenodd;stroke:none"
         id="path12940" />
    </g>
    <g
       id="g12942"
       transform="matrix(46.498022,0,0,-46.498022,1852.1154,246.20357)"
       style="fill:#231f20;fill-opacity:1">
      <path
         inkscape:connector-curvature="0"
         d="m 0,0 -3.81,0 0,6.804 2.068,0 0,-1.852 1.742,0 C 0.763,4.952 1.361,4.898 1.85,4.79 2.342,4.681 2.722,4.463 3.048,4.19 3.321,3.973 3.539,3.756 3.7,3.482 3.81,3.211 3.92,2.884 3.92,2.56 3.92,1.741 3.539,1.144 2.886,0.708 2.232,0.218 1.306,0 0.11,0 L 0,0 z m 0,1.089 c 0.598,0 1.035,0.109 1.252,0.326 0.328,0.164 0.49,0.545 0.49,1.034 0,0.546 -0.162,0.871 -0.49,1.145 -0.272,0.162 -0.717,0.312 -1.261,0.312 -0.114,0 -0.255,0.013 -0.535,0.013 l -1.198,0 0,-2.83 1.361,0 0.381,0 z"
         style="fill:#231f20;fill-opacity:1;fill-rule:evenodd;stroke:none"
         id="path12944" />
    </g>
    <g
       id="g12946"
       transform="matrix(46.498022,0,0,-46.498022,2259.54,198.11532)"
       style="fill:#231f20;fill-opacity:1">
      <path
         inkscape:connector-curvature="0"
         d="m 0,0 1.796,0 0,0.981 -1.796,0 -0.599,0 C -1.087,0.981 -1.405,1 -1.603,0.892 -1.798,0.783 -1.85,0.654 -1.85,0.435 -1.85,0.272 -1.791,0.169 -1.633,0.055 -1.545,-0.008 -1.197,0 -0.761,0 L 0,0 z m 0,-1.034 -1.579,0 c -0.762,0 -1.359,0.109 -1.795,0.382 -0.381,0.27 -0.598,0.597 -0.598,1.032 0,0.601 0.217,0.981 0.707,1.252 0.491,0.218 1.251,0.382 2.396,0.382 l 0.869,0 1.796,0 0,0.109 c 0,0.273 -0.163,0.49 -0.381,0.599 C 1.144,2.831 0.653,2.939 0,2.939 l -0.053,0 -3.43,0 0,0.978 3.483,0 0.71,0 C 1.796,3.917 2.559,3.811 3.103,3.483 3.647,3.156 3.919,2.722 3.919,2.068 l 0,-3.102 -3.919,0 z"
         style="fill:#231f20;fill-opacity:1;fill-rule:evenodd;stroke:none"
         id="path12948" />
    </g>
    <g
       id="g12950"
       transform="matrix(46.498022,0,0,-46.498022,209.69817,101.93881)"
       style="fill:#c1d72f;fill-opacity:1">
      <path
         inkscape:connector-curvature="0"
         d="m 0,0 c 0.545,-0.489 2.776,-2.45 2.776,-2.45 0,0 -2.582,-2.052 -2.8,-2.216 -0.354,-0.283 -0.76,0.114 -0.465,0.477 1.34,1.114 0.977,3.058 -0.039,3.85 C -0.793,-0.052 -0.352,0.398 0,0"
         style="fill:#c1d72f;fill-opacity:1;fill-rule:evenodd;stroke:none"
         id="path12952" />
    </g>
    <g
       id="g12954"
       transform="matrix(46.498022,0,0,-46.498022,209.69817,-169.30759)"
       style="fill:#c1d72f;fill-opacity:1">
      <path
         inkscape:connector-curvature="0"
         d="m 0,0 c 0.545,-0.489 2.776,-2.45 2.776,-2.45 0,0 -2.582,-2.052 -2.8,-2.217 -0.354,-0.282 -0.76,0.116 -0.465,0.478 1.34,1.114 0.977,3.059 -0.039,3.85 C -0.793,-0.052 -0.352,0.399 0,0"
         style="fill:#c1d72f;fill-opacity:1;fill-rule:evenodd;stroke:none"
         id="path12956" />
    </g>
    <g
       id="g12958"
       transform="matrix(46.498022,0,0,-46.498022,372.44125,-27.107338)"
       style="fill:#c1d72f;fill-opacity:1">
      <path
         inkscape:connector-curvature="0"
         d="m 0,0 c 0.545,-0.488 2.776,-2.45 2.776,-2.45 0,0 -2.582,-2.053 -2.8,-2.216 -0.354,-0.283 -0.761,0.115 -0.465,0.477 1.34,1.114 0.977,3.058 -0.039,3.849 C -0.793,-0.053 -0.352,0.398 0,0"
         style="fill:#c1d72f;fill-opacity:1;fill-rule:evenodd;stroke:none"
         id="path12960" />
    </g>
    <g
       id="g12962"
       transform="matrix(46.498022,0,0,-46.498022,2897.2976,15.95913)"
       style="fill:#231f20;fill-opacity:1">
      <path
         inkscape:connector-curvature="0"
         d="m 0,0 1.47,0 0,1.852 2.013,0 0,-1.852 2.177,0 0,-0.979 -2.177,0 0,-2.013 c 0,-0.324 0.109,-0.599 0.326,-0.762 0.165,-0.109 0.492,-0.218 0.98,-0.218 l 0.871,0 0,-0.98 -1.851,0 c -0.762,0 -1.359,0.164 -1.74,0.435 -0.435,0.218 -0.599,0.654 -0.599,1.144 l 0,2.394 -1.47,0 L 0,0 z"
         style="fill:#231f20;fill-opacity:1;fill-rule:evenodd;stroke:none"
         id="path12964" />
    </g>
  </g>
</svg>
