<svg xmlns="http://www.w3.org/2000/svg" width="167" height="38" viewBox="0 0 167 37.796"><path d="M108.212 0h56.5v37.8h-56.5z" fill="#fae2ee"/><g fill="#485fb0"><path d="M167 37.796H0v-37.8h167v37.8zM2.2 35.4h162.595V2.387H2.2zm13.124-12.3H20.8v3.1h-8.5V11.334h3.036V23.1zm15.02.5H25.78l-.828 2.6h-2.94l4.664-12.812h2.77L34.1 26.2h-2.923zm-.8-2.526l-1.47-4.52-1.453 4.52zm23.7-9.73v14.854h-3.036v-6.24h-5.7v6.24H41.47V11.334h3.037v5.517h5.7v-5.517zM62.782 23.6H58.22l-.828 2.6h-2.94l4.663-12.812h2.77L66.55 26.2h-2.918zm-.8-2.526l-1.47-4.52-1.453 4.52zM77.833 21c0 3.313-1.7 5.417-5.018 5.417-3.346 0-5.035-2.1-5.035-5.417v-7.632h2.788v7.376c0 1.6.76 2.745 2.247 2.745s2.248-1.134 2.248-2.745v-7.376h2.77zm9.7-6.964l-1.1 2.507a5.92 5.92 0 0 0-2.67-.805c-.828 0-1.082.3-1.082.75 0 .384.22.64.9 1.08l1.96 1.336a4.15 4.15 0 0 1 2.246 3.752c0 2.47-1.554 3.807-4.308 3.807a8.16 8.16 0 0 1-4.41-1.281l1.183-2.544a6.1 6.1 0 0 0 3.33 1.17c.946 0 1.453-.348 1.453-1.024 0-.586-.457-.934-1.115-1.373l-1.8-1.226a4.17 4.17 0 0 1-2.18-3.66c0-2.086 1.267-3.422 3.768-3.422a9.07 9.07 0 0 1 3.834.933zm4.077-.934c-.618-.05-1.203.285-1.474.842s-.173 1.224.248 1.68 1.077.606 1.654.38.957-.782.957-1.402a1.45 1.45 0 0 0-1.385-1.5zm0 2.66c-.478.038-.93-.22-1.14-.65s-.134-.947.192-1.3a1.16 1.16 0 0 1 1.28-.294c.447.176.74.605.74 1.084a1.12 1.12 0 0 1-1.071 1.16z"/><path d="M91.493 14.785h-.062v.57h-.308V13.85h.556a.44.44 0 0 1 .473.471c.016.208-.12.398-.324.447l.4.587h-.388zm-.062-.28h.2c.124 0 .193-.052.193-.176a.17.17 0 0 0-.055-.134c-.037-.034-.088-.05-.138-.042h-.2zm25.44-3.212h3.3v3.3h-3.3zm9.53 0h3.3v3.3h-3.3zm22.312-.03c-3.26.004-6.13 2.156-7.048 5.286h-24.8v9.386h3.368v-6.018h6.152v6.018h3.368v-6.018H141.5c.693 3.824 4.244 6.446 8.102 5.983s6.688-3.853 6.455-7.732-3.447-6.906-7.333-6.904zm0 11.32c-2.196-.001-3.975-1.78-3.974-3.977s1.78-3.975 3.977-3.975 3.975 1.78 3.975 3.976a3.98 3.98 0 0 1-3.978 3.976z"/></g></svg>